SplineFontDB: 3.0
FontName: Rokkitt-Light
FullName: Rokkitt Light
FamilyName: Rokkitt
Weight: Light
Copyright: Copyright (c) 2011 by vernon adams. All rights reserved.
ItalicAngle: 0
UnderlinePosition: 0
UnderlineWidth: 0
Ascent: 1638
Descent: 410
UFOAscent: 1638
UFODescent: -410
LayerCount: 2
Layer: 0 0 "Back"  1
Layer: 1 0 "Fore"  0
FSType: 0
OS2Version: 0
OS2_WeightWidthSlopeOnly: 0
OS2_UseTypoMetrics: 0
CreationTime: 1350085312
ModificationTime: 1350085610
PfmFamily: 0
TTFWeight: 300
TTFWidth: 5
LineGap: 0
VLineGap: 0
Panose: 2 0 5 3 5 0 0 2 0 3
OS2TypoAscent: 1638
OS2TypoAOffset: 0
OS2TypoDescent: -410
OS2TypoDOffset: 0
OS2TypoLinegap: 0
OS2WinAscent: 1593
OS2WinAOffset: 0
OS2WinDescent: 594
OS2WinDOffset: 0
HheadAscent: 1593
HheadAOffset: 0
HheadDescent: -594
HheadDOffset: 0
OS2SubXSize: 1331
OS2SubYSize: 1228
OS2SubXOff: 0
OS2SubYOff: 153
OS2SupXSize: 1331
OS2SupYSize: 1228
OS2SupXOff: 0
OS2SupYOff: 716
OS2StrikeYSize: 0
OS2StrikeYPos: 501
OS2Vendor: 'newt'
OS2CodePages: 00000093.00000001
OS2UnicodeRanges: 00000007.00000000.00000000.00000000
Lookup: 258 0 0 "'kern' Horizontal Kerning in Latin lookup 0"  {"'kern' Horizontal Kerning in Latin lookup 0 subtable"  } ['kern' ('latn' <'dflt' > ) ]
DEI: 91125
LangName: 1033 "" "" "" "" "" "2.002" "" "Rokkitt Light is a trademark of vernon adams." "vernon adams" "vernon adams" "Copyright (c) 2011 by vernon adams. All rights reserved." "newtypography.co.uk" "newtypography.co.uk" 
PickledData: "(dp1
S'com.typemytype.robofont.compileSettings.autohint'
p2
I01
sS'com.typemytype.robofont.compileSettings.decompose'
p3
I01
sS'public.glyphOrder'
p4
(S'A'
S'Agrave'
S'Aacute'
S'Acircumflex'
S'Atilde'
S'Adieresis'
S'Aring'
S'Amacron'
S'Abreve'
S'Aogonek'
S'uni0200'
S'uni0202'
S'B'
S'C'
S'Ccedilla'
S'Cacute'
S'Ccircumflex'
S'Cdotaccent'
S'Ccaron'
S'D'
S'Dcaron'
S'E'
S'Egrave'
S'Eacute'
S'Ecircumflex'
S'Edieresis'
S'Emacron'
S'Edotaccent'
S'Eogonek'
S'Ecaron'
S'uni0204'
S'uni0206'
S'F'
S'G'
S'Gcircumflex'
S'Gbreve'
S'Gdotaccent'

StartChar: A
Encoding: 33 65 1
Width: 1448
VWidth: 0
Flags: W
PickledData: "(dp1
S'com.typemytype.robofont.layerData'
p2
(dp3
s."
LayerCount: 2
Fore
SplineSet
486 0 m 1
 486 62 l 1
 327 62 l 1
 487 503 l 1
 962 503 l 1
 1122 62 l 1
 963 62 l 1
 963 0 l 1
 1370 0 l 1
 1370 62 l 1
 1208 62 l 1
 793 1171 l 1
 950 1171 l 1
 950 1234 l 1
 499 1234 l 1
 499 1171 l 1
 657 1171 l 1
 241 62 l 1
 78 62 l 1
 78 0 l 1
 486 0 l 1
721 1166 m 1
 727 1166 l 1
 950 564 l 1
 508 564 l 1
 721 1166 l 1
EndSplineSet
EndChar

StartChar: AE
Encoding: 130 198 2
Width: 2097
VWidth: 0
Flags: W
PickledData: "(dp1
S'com.typemytype.robofont.layerData'
p2
(dp3
s."
LayerCount: 2
Fore
SplineSet
462 0 m 1
 474 62 l 1
 316 62 l 1
 558 503 l 1
 1039 503 l 1
 1116 62 l 1
 952 62 l 1
 940 0 l 1
 1968 0 l 1
 1899 376 l 1
 1822 376 l 1
 1878 70 l 1
 1201 70 l 1
 1103 596 l 1
 1529 596 l 1
 1560 424 l 1
 1627 424 l 1
 1553 824 l 1
 1486 824 l 1
 1516 666 l 1
 1090 666 l 1
 996 1164 l 1
 1654 1164 l 1
 1710 858 l 1
 1787 858 l 1
 1717 1234 l 1
 707 1234 l 1
 695 1171 l 1
 853 1171 l 1
 229 62 l 1
 72 62 l 1
 60 0 l 1
 462 0 l 1
915 1160 m 1
 924 1160 l 1
 1028 564 l 1
 591 564 l 1
 915 1160 l 1
EndSplineSet
EndChar

StartChar: Aacute
Encoding: 125 193 3
Width: 1272
VWidth: 0
Flags: W
PickledData: "(dp1
S'com.typemytype.robofont.layerData'
p2
(dp3
s."
LayerCount: 2
Fore
SplineSet
574 1383 m 1
 728 1632 l 1
 602 1632 l 1
 543 1383 l 1
 574 1383 l 1
-7 0 m 1
 -7 62 l 1
 152 62 l 1
 568 1171 l 1
 410 1171 l 1
 410 1234 l 1
 861 1234 l 1
 861 1171 l 1
 704 1171 l 1
 1119 62 l 1
 1277 62 l 1
 1277 0 l 1
 874 0 l 1
 874 62 l 1
 1033 62 l 1
 873 503 l 1
 398 503 l 1
 238 62 l 1
 397 62 l 1
 397 0 l 1
 -7 0 l 1
419 564 m 1
 861 564 l 1
 638 1166 l 1
 632 1166 l 1
 419 564 l 1
EndSplineSet
EndChar

StartChar: Acircumflex
Encoding: 126 194 5
Width: 1272
VWidth: 0
Flags: W
PickledData: "(dp1
S'com.typemytype.robofont.layerData'
p2
(dp3
s."
LayerCount: 2
Fore
SplineSet
528 1320 m 1
 633 1544 l 1
 737 1320 l 1
 826 1320 l 1
 680 1593 l 1
 585 1593 l 1
 446 1320 l 1
 528 1320 l 1
-6 0 m 1
 -6 62 l 1
 153 62 l 1
 569 1171 l 1
 411 1171 l 1
 411 1234 l 1
 862 1234 l 1
 862 1171 l 1
 705 1171 l 1
 1120 62 l 1
 1278 62 l 1
 1278 0 l 1
 875 0 l 1
 875 62 l 1
 1034 62 l 1
 874 503 l 1
 399 503 l 1
 239 62 l 1
 398 62 l 1
 398 0 l 1
 -6 0 l 1
420 564 m 1
 862 564 l 1
 639 1166 l 1
 633 1166 l 1
 420 564 l 1
EndSplineSet
EndChar

StartChar: Adieresis
Encoding: 128 196 6
Width: 1272
VWidth: 0
Flags: W
PickledData: "(dp1
S'com.typemytype.robofont.layerData'
p2
(dp3
s."
LayerCount: 2
Fore
SplineSet
707 1444 m 1
 707 1338 l 1
 807 1338 l 1
 807 1444 l 1
 707 1444 l 1
465 1444 m 1
 465 1338 l 1
 565 1338 l 1
 565 1444 l 1
 465 1444 l 1
-6 0 m 1
 -6 62 l 1
 153 62 l 1
 569 1171 l 1
 411 1171 l 1
 411 1234 l 1
 862 1234 l 1
 862 1171 l 1
 705 1171 l 1
 1120 62 l 1
 1278 62 l 1
 1278 0 l 1
 875 0 l 1
 875 62 l 1
 1034 62 l 1
 874 503 l 1
 399 503 l 1
 239 62 l 1
 398 62 l 1
 398 0 l 1
 -6 0 l 1
420 564 m 1
 862 564 l 1
 639 1166 l 1
 633 1166 l 1
 420 564 l 1
EndSplineSet
EndChar

StartChar: Agrave
Encoding: 124 192 7
Width: 1272
VWidth: 0
Flags: W
PickledData: "(dp1
S'com.typemytype.robofont.layerData'
p2
(dp3
s."
LayerCount: 2
Fore
SplineSet
730 1383 m 1
 669 1632 l 1
 542 1632 l 1
 699 1383 l 1
 730 1383 l 1
-6 0 m 1
 -6 62 l 1
 153 62 l 1
 569 1171 l 1
 411 1171 l 1
 411 1234 l 1
 862 1234 l 1
 862 1171 l 1
 705 1171 l 1
 1120 62 l 1
 1278 62 l 1
 1278 0 l 1
 875 0 l 1
 875 62 l 1
 1034 62 l 1
 874 503 l 1
 399 503 l 1
 239 62 l 1
 398 62 l 1
 398 0 l 1
 -6 0 l 1
420 564 m 1
 862 564 l 1
 639 1166 l 1
 633 1166 l 1
 420 564 l 1
EndSplineSet
EndChar

StartChar: Aring
Encoding: 129 197 10
Width: 1272
VWidth: 0
Flags: W
PickledData: "(dp1
S'com.typemytype.robofont.layerData'
p2
(dp3
s."
LayerCount: 2
Fore
SplineSet
513 1563 m 0
 513 1626 555 1689 637 1689 c 0
 716 1689 758 1626 758 1563 c 0
 758 1501 716 1437 637 1437 c 0
 555 1437 513 1501 513 1563 c 0
465 1563 m 0
 465 1478 523 1393 636 1393 c 0
 748 1393 806 1478 806 1563 c 0
 806 1648 748 1734 636 1734 c 0
 523 1734 465 1648 465 1563 c 0
-7 0 m 1
 -7 62 l 1
 152 62 l 1
 568 1171 l 1
 410 1171 l 1
 410 1234 l 1
 861 1234 l 1
 861 1171 l 1
 704 1171 l 1
 1119 62 l 1
 1277 62 l 1
 1277 0 l 1
 874 0 l 1
 874 62 l 1
 1033 62 l 1
 873 503 l 1
 398 503 l 1
 238 62 l 1
 397 62 l 1
 397 0 l 1
 -7 0 l 1
419 564 m 1
 861 564 l 1
 638 1166 l 1
 632 1166 l 1
 419 564 l 1
EndSplineSet
EndChar

StartChar: Atilde
Encoding: 127 195 11
Width: 1272
VWidth: 0
Flags: W
PickledData: "(dp1
S'com.typemytype.robofont.layerData'
p2
(dp3
s."
LayerCount: 2
Fore
SplineSet
442 1426 m 1
 450 1453 465 1467 501 1467 c 0
 571 1467 645 1420 744 1420 c 0
 816 1420 859 1470 868 1551 c 1
 831 1551 l 1
 822 1524 794 1508 757 1508 c 0
 691 1508 614 1555 528 1555 c 0
 465 1555 414 1516 404 1426 c 1
 442 1426 l 1
-6 0 m 1
 -6 62 l 1
 153 62 l 1
 569 1171 l 1
 411 1171 l 1
 411 1234 l 1
 862 1234 l 1
 862 1171 l 1
 705 1171 l 1
 1120 62 l 1
 1278 62 l 1
 1278 0 l 1
 875 0 l 1
 875 62 l 1
 1034 62 l 1
 874 503 l 1
 399 503 l 1
 239 62 l 1
 398 62 l 1
 398 0 l 1
 -6 0 l 1
420 564 m 1
 862 564 l 1
 639 1166 l 1
 633 1166 l 1
 420 564 l 1
EndSplineSet
EndChar

StartChar: B
Encoding: 34 66 12
Width: 1375
VWidth: 0
Flags: W
PickledData: "(dp1
S'com.typemytype.robofont.layerData'
p2
(dp3
s."
LayerCount: 2
Fore
SplineSet
863 0 m 2
 1103 0 1226 169 1226 338 c 0
 1226 470 1149 608 983 654 c 1
 1101 716 1154 822 1154 931 c 0
 1154 1082 1031 1234 791 1234 c 2
 131 1234 l 1
 131 1171 l 1
 297 1171 l 1
 297 62 l 1
 144 62 l 1
 144 0 l 1
 863 0 l 2
378 613 m 1
 848 613 l 2
 1047 613 1146 469 1146 342 c 0
 1146 200 1053 62 863 62 c 2
 378 62 l 1
 378 613 l 1
378 1171 m 1
 791 1171 l 2
 981 1171 1074 1051 1074 928 c 0
 1074 803 993 678 839 678 c 2
 378 678 l 1
 378 1171 l 1
EndSplineSet
EndChar

StartChar: C
Encoding: 35 67 13
Width: 1473
VWidth: 0
Flags: W
PickledData: "(dp1
S'com.typemytype.robofont.layerData'
p2
(dp3
s."
LayerCount: 2
Fore
SplineSet
1321 283 m 1
 1252 334 l 1
 1144 131 958 48 764 48 c 0
 386 48 208 330 208 622 c 0
 208 912 413 1182 764 1182 c 0
 1011 1182 1178 1036 1250 874 c 1
 1312 887 l 1
 1312 1234 l 1
 1237 1234 l 1
 1237 1027 l 1
 1129 1178 952 1255 752 1255 c 0
 393 1255 124 982 124 622 c 0
 124 184 449 -23 747 -23 c 0
 1009 -23 1201 76 1321 283 c 1
EndSplineSet
EndChar

StartChar: D
Encoding: 36 68 20
Width: 1493
VWidth: 0
Flags: W
PickledData: "(dp1
S'com.typemytype.robofont.layerData'
p2
(dp3
s."
LayerCount: 2
Fore
SplineSet
131 1234 m 1
 131 1171 l 1
 297 1171 l 1
 297 62 l 1
 131 62 l 1
 131 0 l 1
 824 0 l 2
 1187 0 1369 306 1369 614 c 0
 1369 923 1186 1234 824 1234 c 2
 131 1234 l 1
823 1171 m 2
 1132 1171 1285 893 1285 616 c 0
 1285 338 1133 62 823 62 c 2
 379 62 l 1
 379 1171 l 1
 823 1171 l 2
EndSplineSet
EndChar

StartChar: E
Encoding: 37 69 22
Width: 1295
VWidth: 0
Flags: W
PickledData: "(dp1
S'com.typemytype.robofont.layerData'
p2
(dp3
s."
LayerCount: 2
Fore
SplineSet
1052 1164 m 1
 1052 858 l 1
 1128 858 l 1
 1128 1234 l 1
 131 1234 l 1
 131 1164 l 1
 306 1164 l 1
 306 70 l 1
 131 70 l 1
 131 0 l 1
 1150 0 l 1
 1150 376 l 1
 1073 376 l 1
 1073 70 l 1
 388 70 l 1
 388 596 l 1
 821 596 l 1
 821 424 l 1
 888 424 l 1
 888 824 l 1
 821 824 l 1
 821 666 l 1
 388 666 l 1
 388 1164 l 1
 1052 1164 l 1
EndSplineSet
EndChar

StartChar: Edotaccent
Encoding: 65538 278 27
Width: 1120
VWidth: 0
Flags: W
PickledData: "(dp1
S'com.typemytype.robofont.layerData'
p2
(dp3
s."
LayerCount: 2
Fore
SplineSet
502 1582 m 1
 502 1462 l 1
 618 1462 l 1
 618 1582 l 1
 502 1582 l 1
978 1164 m 1
 978 858 l 1
 1054 858 l 1
 1054 1234 l 1
 57 1234 l 1
 57 1164 l 1
 232 1164 l 1
 232 70 l 1
 57 70 l 1
 57 0 l 1
 1076 0 l 1
 1076 376 l 1
 999 376 l 1
 999 70 l 1
 314 70 l 1
 314 596 l 1
 747 596 l 1
 747 424 l 1
 814 424 l 1
 814 824 l 1
 747 824 l 1
 747 666 l 1
 314 666 l 1
 314 1164 l 1
 978 1164 l 1
EndSplineSet
EndChar

StartChar: Eth
Encoding: 140 208 31
Width: 1434
VWidth: 0
Flags: W
PickledData: "(dp1
S'com.typemytype.robofont.layerData'
p2
(dp3
s."
LayerCount: 2
Fore
SplineSet
790 1171 m 2
 1099 1171 1252 893 1252 616 c 0
 1252 338 1100 62 790 62 c 2
 346 62 l 1
 346 597 l 1
 500 597 l 1
 500 662 l 1
 346 662 l 1
 346 1171 l 1
 790 1171 l 2
109 597 m 1
 264 597 l 1
 264 62 l 1
 98 62 l 1
 98 0 l 1
 791 0 l 2
 1154 0 1336 306 1336 614 c 0
 1336 923 1153 1234 791 1234 c 2
 98 1234 l 1
 98 1171 l 1
 264 1171 l 1
 264 662 l 1
 109 662 l 1
 109 597 l 1
EndSplineSet
EndChar

StartChar: Euro
Encoding: 370 8364 32
Width: 1403
VWidth: 0
Flags: W
PickledData: "(dp1
S'com.typemytype.robofont.layerData'
p2
(dp3
s."
LayerCount: 2
Fore
SplineSet
953 794 m 1
 338 794 l 1
 407 1025 607 1178 824 1178 c 0
 956 1178 1094 1123 1212 994 c 1
 1274 1007 l 1
 1274 1237 l 1
 1199 1237 l 1
 1199 1099 l 1
 1085 1207 953 1255 823 1255 c 0
 569 1255 325 1070 252 794 c 1
 62 794 l 1
 62 732 l 1
 239 732 l 1
 233 696 230 659 230 622 c 0
 230 584 233 551 236 517 c 1
 62 517 l 1
 62 455 l 1
 246 455 l 1
 309 134 559 -22 831 -22 c 0
 977 -22 1128 23 1261 110 c 1
 1227 174 l 1
 1100 89 965 47 837 47 c 0
 600 47 392 190 332 455 c 1
 953 455 l 1
 953 517 l 1
 321 517 l 1
 317 550 314 584 314 622 c 0
 314 660 317 696 324 732 c 1
 953 732 l 1
 953 794 l 1
EndSplineSet
EndChar

StartChar: F
Encoding: 38 70 33
Width: 1216
VWidth: 0
Flags: W
PickledData: "(dp1
S'com.typemytype.robofont.layerData'
p2
(dp3
s."
LayerCount: 2
Fore
SplineSet
1059 1164 m 1
 1059 858 l 1
 1136 858 l 1
 1136 1234 l 1
 131 1234 l 1
 131 1164 l 1
 306 1164 l 1
 306 70 l 1
 131 70 l 1
 131 0 l 1
 590 0 l 1
 590 70 l 1
 388 70 l 1
 388 577 l 1
 881 577 l 1
 881 404 l 1
 948 404 l 1
 948 817 l 1
 881 817 l 1
 881 643 l 1
 388 643 l 1
 388 1164 l 1
 1059 1164 l 1
EndSplineSet
EndChar

StartChar: G
Encoding: 39 71 34
Width: 1481
VWidth: 0
Flags: W
PickledData: "(dp1
S'com.typemytype.robofont.layerData'
p2
(dp3
s."
LayerCount: 2
Fore
SplineSet
991 523 m 1
 1256 523 l 1
 1249 158 969 48 764 48 c 0
 386 48 208 326 208 622 c 0
 208 912 413 1182 764 1182 c 0
 999 1182 1156 1048 1226 898 c 1
 1288 898 l 1
 1288 1234 l 1
 1213 1234 l 1
 1213 1051 l 1
 1109 1186 943 1255 752 1255 c 0
 393 1255 124 982 124 622 c 0
 124 184 453 -23 751 -23 c 0
 1015 -23 1340 101 1340 589 c 1
 991 589 l 1
 991 523 l 1
EndSplineSet
EndChar

StartChar: H
Encoding: 40 72 39
Width: 1518
VWidth: 0
Flags: W
PickledData: "(dp1
S'com.typemytype.robofont.layerData'
p2
(dp3
s."
LayerCount: 2
Fore
SplineSet
1018 1234 m 1
 1018 1171 l 1
 1166 1171 l 1
 1166 661 l 1
 364 661 l 1
 364 1171 l 1
 519 1171 l 1
 519 1234 l 1
 131 1234 l 1
 131 1171 l 1
 283 1171 l 1
 283 62 l 1
 131 62 l 1
 131 0 l 1
 519 0 l 1
 519 62 l 1
 364 62 l 1
 364 598 l 1
 1166 598 l 1
 1166 62 l 1
 1018 62 l 1
 1018 0 l 1
 1387 0 l 1
 1387 62 l 1
 1247 62 l 1
 1247 1171 l 1
 1387 1171 l 1
 1387 1234 l 1
 1018 1234 l 1
EndSplineSet
EndChar

StartChar: Hbar
Encoding: 220 294 40
Width: 1350
VWidth: 0
Flags: W
PickledData: "(dp1
S'com.typemytype.robofont.layerData'
p2
(dp3
s."
LayerCount: 2
Fore
SplineSet
933 1234 m 1
 933 1171 l 1
 1081 1171 l 1
 1081 952 l 1
 279 952 l 1
 279 1171 l 1
 434 1171 l 1
 434 1234 l 1
 46 1234 l 1
 46 1171 l 1
 198 1171 l 1
 198 952 l 1
 92 952 l 1
 92 889 l 1
 198 889 l 1
 198 62 l 1
 46 62 l 1
 46 0 l 1
 434 0 l 1
 434 62 l 1
 279 62 l 1
 279 598 l 1
 1081 598 l 1
 1081 62 l 1
 933 62 l 1
 933 0 l 1
 1302 0 l 1
 1302 62 l 1
 1162 62 l 1
 1162 889 l 1
 1266 889 l 1
 1266 952 l 1
 1162 952 l 1
 1162 1171 l 1
 1302 1171 l 1
 1302 1234 l 1
 933 1234 l 1
1081 889 m 1
 1081 661 l 1
 279 661 l 1
 279 889 l 1
 1081 889 l 1
EndSplineSet
EndChar

StartChar: I
Encoding: 41 73 42
Width: 679
VWidth: 0
Flags: W
PickledData: "(dp1
S'com.typemytype.robofont.layerData'
p2
(dp3
s."
LayerCount: 2
Fore
SplineSet
138 1234 m 1
 138 1171 l 1
 299 1171 l 1
 299 62 l 1
 138 62 l 1
 138 0 l 1
 541 0 l 1
 541 62 l 1
 381 62 l 1
 381 1171 l 1
 541 1171 l 1
 541 1234 l 1
 138 1234 l 1
EndSplineSet
EndChar

StartChar: J
Encoding: 42 74 53
Width: 654
VWidth: 0
Flags: W
PickledData: "(dp1
S'com.typemytype.robofont.layerData'
p2
(dp3
s."
LayerCount: 2
Fore
SplineSet
348 59 m 2
 348 -38 308 -41 279 -41 c 2
 274 -41 l 1
 190 -41 l 1
 190 -101 l 1
 261 -101 l 1
 266 -101 l 2
 335 -101 430 -99 430 60 c 2
 430 1174 l 1
 569 1174 l 1
 569 1234 l 1
 209 1234 l 1
 209 1174 l 1
 348 1174 l 1
 348 59 l 2
EndSplineSet
EndChar

StartChar: K
Encoding: 43 75 55
Width: 1358
VWidth: 0
Flags: W
PickledData: "(dp1
S'com.typemytype.robofont.layerData'
p2
(dp3
s."
LayerCount: 2
Fore
SplineSet
131 1234 m 1
 131 1174 l 1
 292 1174 l 1
 292 60 l 1
 131 60 l 1
 131 0 l 1
 535 0 l 1
 535 60 l 1
 374 60 l 1
 374 625 l 1
 1018 60 l 1
 851 60 l 1
 851 0 l 1
 1284 0 l 1
 1284 60 l 1
 1136 60 l 1
 476 634 l 1
 1076 1174 l 1
 1249 1174 l 1
 1249 1234 l 1
 817 1234 l 1
 817 1174 l 1
 970 1174 l 1
 374 642 l 1
 374 1174 l 1
 535 1174 l 1
 535 1234 l 1
 131 1234 l 1
EndSplineSet
EndChar

StartChar: L
Encoding: 44 76 57
Width: 1113
VWidth: 0
Flags: W
PickledData: "(dp1
S'com.typemytype.robofont.layerData'
p2
(dp3
s."
LayerCount: 2
Fore
SplineSet
131 1234 m 1
 131 1174 l 1
 270 1174 l 1
 270 70 l 1
 131 70 l 1
 131 0 l 1
 1056 0 l 1
 1056 412 l 1
 980 412 l 1
 980 70 l 1
 352 70 l 1
 352 1174 l 1
 491 1174 l 1
 491 1234 l 1
 131 1234 l 1
EndSplineSet
EndChar

StartChar: Lslash
Encoding: 244 321 62
Width: 1169
VWidth: 0
Flags: W
PickledData: "(dp1
S'com.typemytype.robofont.layerData'
p2
(dp3
s."
LayerCount: 2
Fore
SplineSet
133 1234 m 1
 133 1174 l 1
 272 1174 l 1
 272 715 l 1
 140 637 l 1
 140 557 l 1
 272 635 l 1
 272 70 l 1
 133 70 l 1
 133 0 l 1
 1058 0 l 1
 1058 412 l 1
 982 412 l 1
 982 70 l 1
 354 70 l 1
 354 684 l 1
 562 807 l 1
 562 887 l 1
 354 764 l 1
 354 1174 l 1
 493 1174 l 1
 493 1234 l 1
 133 1234 l 1
EndSplineSet
EndChar

StartChar: M
Encoding: 45 77 63
Width: 1716
VWidth: 0
Flags: W
PickledData: "(dp1
S'com.typemytype.robofont.layerData'
p2
(dp3
s."
LayerCount: 2
Fore
SplineSet
371 62 m 1
 371 1088 l 1
 860 94 l 1
 876 94 l 1
 1345 1088 l 1
 1345 62 l 1
 1184 62 l 1
 1184 0 l 1
 1585 0 l 1
 1585 62 l 1
 1424 62 l 1
 1424 1171 l 1
 1585 1171 l 1
 1585 1234 l 1
 1329 1234 l 1
 868 242 l 1
 387 1234 l 1
 131 1234 l 1
 131 1171 l 1
 292 1171 l 1
 292 62 l 1
 131 62 l 1
 131 0 l 1
 532 0 l 1
 532 62 l 1
 371 62 l 1
EndSplineSet
EndChar

StartChar: N
Encoding: 46 78 64
Width: 1522
VWidth: 0
Flags: W
PickledData: "(dp1
S'com.typemytype.robofont.layerData'
p2
(dp3
s."
LayerCount: 2
Fore
SplineSet
131 1234 m 1
 131 1171 l 1
 292 1171 l 1
 292 62 l 1
 131 62 l 1
 131 0 l 1
 532 0 l 1
 532 62 l 1
 371 62 l 1
 371 1114 l 1
 1215 0 l 1
 1294 0 l 1
 1294 1171 l 1
 1441 1171 l 1
 1441 1234 l 1
 1054 1234 l 1
 1054 1171 l 1
 1215 1171 l 1
 1215 125 l 1
 371 1234 l 1
 131 1234 l 1
EndSplineSet
EndChar

StartChar: O
Encoding: 47 79 70
Width: 1528
VWidth: 0
Flags: W
PickledData: "(dp1
S'com.typemytype.robofont.layerData'
p2
(dp3
s."
LayerCount: 2
Fore
SplineSet
764 1182 m 0
 1130 1182 1320 896 1320 614 c 0
 1320 332 1131 48 764 48 c 0
 390 48 208 325 208 614 c 0
 208 896 394 1182 764 1182 c 0
764 -23 m 0
 1191 -23 1404 294 1404 613 c 0
 1404 934 1189 1255 764 1255 c 0
 339 1255 124 934 124 613 c 0
 124 294 337 -23 764 -23 c 0
EndSplineSet
EndChar

StartChar: OE
Encoding: 258 338 71
Width: 2019
VWidth: 0
Flags: W
PickledData: "(dp1
S'com.typemytype.robofont.layerData'
p2
(dp3
s."
LayerCount: 2
Fore
SplineSet
1858 0 m 1
 1858 376 l 1
 1781 376 l 1
 1781 70 l 1
 1120 70 l 1
 1120 596 l 1
 1553 596 l 1
 1553 424 l 1
 1620 424 l 1
 1620 824 l 1
 1553 824 l 1
 1553 666 l 1
 1120 666 l 1
 1120 1164 l 1
 1759 1164 l 1
 1759 858 l 1
 1836 858 l 1
 1836 1234 l 1
 768 1234 l 2
 343 1234 128 922 128 613 c 0
 128 306 341 0 768 0 c 2
 1858 0 l 1
768 70 m 2
 394 70 212 337 212 614 c 0
 212 884 398 1158 768 1158 c 2
 1038 1158 l 1
 1038 70 l 1
 768 70 l 2
EndSplineSet
EndChar

StartChar: Oslash
Encoding: 148 216 79
Width: 1519
VWidth: 0
Flags: W
PickledData: "(dp1
S'com.typemytype.robofont.layerData'
p2
(dp3
s."
LayerCount: 2
Fore
SplineSet
760 -23 m 0
 1187 -23 1400 294 1400 613 c 0
 1400 792 1332 972 1198 1095 c 1
 1288 1210 l 1
 1242 1242 l 1
 1156 1131 l 1
 1055 1208 923 1255 760 1255 c 0
 335 1255 120 934 120 613 c 0
 120 420 198 227 355 105 c 1
 266 -8 l 1
 314 -42 l 1
 403 72 l 1
 498 12 617 -23 760 -23 c 0
760 1182 m 0
 902 1182 1018 1138 1107 1069 c 1
 401 165 l 1
 269 272 204 441 204 614 c 0
 204 896 390 1182 760 1182 c 0
1316 614 m 0
 1316 332 1127 48 760 48 c 0
 635 48 531 79 449 131 c 1
 1149 1031 l 1
 1259 922 1316 767 1316 614 c 0
EndSplineSet
EndChar

StartChar: P
Encoding: 48 80 81
Width: 1262
VWidth: 0
Flags: W
PickledData: "(dp1
S'com.typemytype.robofont.layerData'
p2
(dp3
s."
LayerCount: 2
Fore
SplineSet
144 0 m 1
 548 0 l 1
 548 62 l 1
 378 62 l 1
 378 517 l 1
 812 517 l 2
 1052 517 1174 702 1174 883 c 0
 1174 1058 1052 1234 812 1234 c 2
 131 1234 l 1
 131 1171 l 1
 297 1171 l 1
 297 62 l 1
 144 62 l 1
 144 0 l 1
378 1171 m 1
 812 1171 l 2
 1001 1171 1095 1027 1095 880 c 0
 1095 731 999 582 812 582 c 2
 378 582 l 1
 378 1171 l 1
EndSplineSet
EndChar

StartChar: Q
Encoding: 49 81 82
Width: 1528
VWidth: 0
Flags: W
PickledData: "(dp1
S'com.typemytype.robofont.layerData'
p2
(dp3
s."
LayerCount: 2
Fore
SplineSet
1095 -206 m 0
 1144 -206 1195 -197 1253 -177 c 1
 1230 -112 l 1
 1183 -128 1142 -135 1103 -135 c 0
 1006 -135 927 -91 839 -20 c 1
 1216 16 1404 313 1404 613 c 0
 1404 934 1189 1255 764 1255 c 0
 339 1255 124 934 124 613 c 0
 124 309 317 7 704 -21 c 1
 848 -133 958 -206 1095 -206 c 0
764 48 m 0
 390 48 208 325 208 614 c 0
 208 896 394 1182 764 1182 c 0
 1130 1182 1320 896 1320 614 c 0
 1320 332 1131 48 764 48 c 0
EndSplineSet
EndChar

StartChar: R
Encoding: 50 82 83
Width: 1346
VWidth: 0
Flags: W
PickledData: "(dp1
S'com.typemytype.robofont.layerData'
p2
(dp3
s."
LayerCount: 2
Fore
SplineSet
144 0 m 1
 548 0 l 1
 548 62 l 1
 378 62 l 1
 378 577 l 1
 686 577 l 1
 1028 0 l 1
 1260 0 l 1
 1260 62 l 1
 1086 62 l 1
 771 577 l 1
 1011 577 1133 744 1133 907 c 0
 1133 1070 1011 1234 771 1234 c 2
 131 1234 l 1
 131 1171 l 1
 297 1171 l 1
 297 62 l 1
 144 62 l 1
 144 0 l 1
378 1171 m 1
 771 1171 l 2
 960 1171 1054 1039 1054 904 c 0
 1054 773 958 642 771 642 c 2
 378 642 l 1
 378 1171 l 1
EndSplineSet
EndChar

StartChar: S
Encoding: 51 83 87
Width: 1223
VWidth: 0
Flags: W
PickledData: "(dp1
S'com.typemytype.robofont.layerData'
p2
(dp3
s."
LayerCount: 2
Fore
SplineSet
680 -23 m 0
 995 -23 1097 184 1097 317 c 0
 1097 582 887 642 648 667 c 0
 433 689 288 715 288 912 c 0
 288 1069 385 1182 613 1182 c 0
 769 1182 947 1097 947 1008 c 2
 947 899 l 1
 1026 899 l 1
 1026 1234 l 1
 947 1234 l 1
 947 1123 l 1
 886 1211 720 1255 600 1255 c 0
 385 1255 197 1142 197 925 c 0
 197 681 355 621 625 593 c 0
 861 569 1008 523 1008 322 c 0
 1008 182 889 52 689 52 c 0
 479 52 279 128 279 266 c 2
 279 416 l 1
 200 416 l 1
 200 0 l 1
 279 0 l 1
 279 132 l 1
 358 25 531 -23 680 -23 c 0
EndSplineSet
EndChar

StartChar: T
Encoding: 52 84 91
Width: 1231
VWidth: 0
Flags: W
PickledData: "(dp1
S'com.typemytype.robofont.layerData'
p2
(dp3
s."
LayerCount: 2
Fore
SplineSet
73 1234 m 1
 73 842 l 1
 149 842 l 1
 149 1164 l 1
 572 1164 l 1
 572 60 l 1
 397 60 l 1
 397 0 l 1
 829 0 l 1
 829 60 l 1
 653 60 l 1
 653 1164 l 1
 1083 1164 l 1
 1083 842 l 1
 1160 842 l 1
 1160 1234 l 1
 73 1234 l 1
EndSplineSet
EndChar

StartChar: Tcommaaccent
Encoding: 65540 -1 93
Width: 1103
VWidth: 0
Flags: W
PickledData: "(dp1
S'com.typemytype.robofont.layerData'
p2
(dp3
s."
LayerCount: 2
Fore
SplineSet
434 -256 m 1
 462 -266 508 -276 554 -276 c 0
 633 -276 670 -236 670 -197 c 0
 670 -152 627 -108 546 -108 c 2
 534 -108 l 1
 573 6 l 1
 523 6 l 1
 465 -144 l 1
 523 -149 566 -166 566 -192 c 0
 566 -217 543 -224 517 -224 c 0
 486 -224 447 -214 434 -210 c 1
 434 -256 l 1
8 1234 m 1
 8 842 l 1
 84 842 l 1
 84 1164 l 1
 507 1164 l 1
 507 60 l 1
 332 60 l 1
 332 0 l 1
 764 0 l 1
 764 60 l 1
 588 60 l 1
 588 1164 l 1
 1018 1164 l 1
 1018 842 l 1
 1095 842 l 1
 1095 1234 l 1
 8 1234 l 1
EndSplineSet
EndChar

StartChar: Thorn
Encoding: 154 222 94
Width: 1130
VWidth: 0
Flags: W
PickledData: "(dp1
S'com.typemytype.robofont.layerData'
p2
(dp3
s."
LayerCount: 2
Fore
SplineSet
338 1171 m 1
 493 1171 l 1
 493 1234 l 1
 106 1234 l 1
 106 1171 l 1
 257 1171 l 1
 257 62 l 1
 104 62 l 1
 104 0 l 1
 508 0 l 1
 508 62 l 1
 338 62 l 1
 338 421 l 1
 736 421 l 2
 956 421 1074 583 1074 740 c 0
 1074 893 965 1042 736 1042 c 2
 338 1042 l 1
 338 1171 l 1
338 979 m 1
 736 979 l 2
 912 979 995 862 995 740 c 0
 995 614 904 486 736 486 c 2
 338 486 l 1
 338 979 l 1
EndSplineSet
EndChar

StartChar: U
Encoding: 53 85 95
Width: 1556
VWidth: 0
Flags: W
PickledData: "(dp1
S'com.typemytype.robofont.layerData'
p2
(dp3
s."
LayerCount: 2
Fore
SplineSet
1234 406 m 2
 1234 169 1002 48 772 48 c 0
 554 48 336 164 336 406 c 2
 336 1171 l 1
 497 1171 l 1
 497 1234 l 1
 94 1234 l 1
 94 1171 l 1
 255 1171 l 1
 255 404 l 2
 255 118 514 -23 774 -23 c 0
 1044 -23 1316 121 1316 404 c 2
 1316 1171 l 1
 1476 1171 l 1
 1476 1234 l 1
 1073 1234 l 1
 1073 1171 l 1
 1234 1171 l 1
 1234 406 l 2
EndSplineSet
EndChar

StartChar: V
Encoding: 54 86 106
Width: 1345
VWidth: 0
Flags: W
PickledData: "(dp1
S'com.typemytype.robofont.layerData'
p2
(dp3
s."
LayerCount: 2
Fore
SplineSet
719 0 m 1
 1163 1171 l 1
 1299 1171 l 1
 1299 1234 l 1
 906 1234 l 1
 906 1171 l 1
 1069 1171 l 1
 677 100 l 1
 281 1171 l 1
 447 1171 l 1
 447 1234 l 1
 44 1234 l 1
 44 1171 l 1
 193 1171 l 1
 633 0 l 1
 719 0 l 1
EndSplineSet
EndChar

StartChar: W
Encoding: 55 87 107
Width: 2072
VWidth: 0
Flags: W
PickledData: "(dp1
S'com.typemytype.robofont.layerData'
p2
(dp3
s."
LayerCount: 2
Fore
SplineSet
1468 0 m 1
 1848 1171 l 1
 1998 1171 l 1
 1998 1234 l 1
 1599 1234 l 1
 1599 1171 l 1
 1758 1171 l 1
 1426 100 l 1
 1078 1171 l 1
 1235 1171 l 1
 1235 1234 l 1
 837 1234 l 1
 837 1171 l 1
 990 1171 l 1
 658 100 l 1
 310 1171 l 1
 477 1171 l 1
 477 1234 l 1
 74 1234 l 1
 74 1171 l 1
 222 1171 l 1
 613 0 l 1
 702 0 l 1
 1035 1044 l 1
 1381 0 l 1
 1468 0 l 1
EndSplineSet
EndChar

StartChar: X
Encoding: 56 88 108
Width: 1362
VWidth: 0
Flags: W
PickledData: "(dp1
S'com.typemytype.robofont.layerData'
p2
(dp3
s."
LayerCount: 2
Fore
SplineSet
115 1234 m 1
 115 1171 l 1
 276 1171 l 1
 636 634 l 1
 257 62 l 1
 103 62 l 1
 103 0 l 1
 506 0 l 1
 506 62 l 1
 346 62 l 1
 680 568 l 1
 1020 62 l 1
 859 62 l 1
 859 0 l 1
 1262 0 l 1
 1262 62 l 1
 1102 62 l 1
 721 629 l 1
 1080 1171 l 1
 1238 1171 l 1
 1238 1234 l 1
 835 1234 l 1
 835 1171 l 1
 995 1171 l 1
 677 695 l 1
 358 1171 l 1
 518 1171 l 1
 518 1234 l 1
 115 1234 l 1
EndSplineSet
EndChar

StartChar: Y
Encoding: 57 89 109
Width: 1345
VWidth: 0
Flags: W
PickledData: "(dp1
S'com.typemytype.robofont.layerData'
p2
(dp3
s."
LayerCount: 2
Fore
SplineSet
192 1171 m 1
 634 436 l 1
 634 62 l 1
 473 62 l 1
 473 0 l 1
 876 0 l 1
 876 62 l 1
 716 62 l 1
 716 436 l 1
 1155 1171 l 1
 1311 1171 l 1
 1311 1234 l 1
 908 1234 l 1
 908 1171 l 1
 1067 1171 l 1
 677 508 l 1
 280 1171 l 1
 437 1171 l 1
 437 1234 l 1
 34 1234 l 1
 34 1171 l 1
 192 1171 l 1
EndSplineSet
EndChar

StartChar: Z
Encoding: 58 90 112
Width: 1304
VWidth: 0
Flags: W
PickledData: "(dp1
S'com.typemytype.robofont.layerData'
p2
(dp3
s."
LayerCount: 2
Fore
SplineSet
1120 1153 m 1
 1120 1234 l 1
 173 1234 l 1
 173 870 l 1
 250 870 l 1
 250 1164 l 1
 1031 1164 l 1
 154 96 l 1
 154 0 l 1
 1156 0 l 1
 1156 376 l 1
 1079 376 l 1
 1079 70 l 1
 237 70 l 1
 1120 1153 l 1
EndSplineSet
EndChar

StartChar: a
Encoding: 65 97 116
Width: 1008
VWidth: 0
Flags: W
PickledData: "(dp1
S'com.typemytype.robofont.layerData'
p2
(dp3
s."
LayerCount: 2
Fore
SplineSet
721 95 m 1
 737 0 l 1
 932 0 l 1
 932 60 l 1
 801 60 l 1
 801 593 l 2
 801 701 745 854 485 854 c 0
 351 854 241 826 167 755 c 1
 203 696 l 1
 263 757 358 787 483 787 c 0
 630 787 721 736 721 575 c 2
 721 446 l 1
 640 462 567 475 490 475 c 0
 312 475 127 452 127 232 c 0
 127 101 220 -14 413 -14 c 0
 533 -14 623 22 721 95 c 1
423 53 m 0
 261 53 208 148 208 230 c 0
 208 407 366 410 486 410 c 0
 588 410 721 384 721 384 c 1
 721 158 l 1
 636 80 537 53 423 53 c 0
EndSplineSet
EndChar

StartChar: acute
Encoding: 114 180 120
Width: 193
VWidth: 0
Flags: W
PickledData: "(dp1
S'com.typemytype.robofont.layerData'
p2
(dp3
s."
LayerCount: 2
Fore
SplineSet
39 985 m 1
 193 1234 l 1
 67 1234 l 1
 8 985 l 1
 39 985 l 1
EndSplineSet
EndChar

StartChar: ae
Encoding: 162 230 122
Width: 1638
VWidth: 0
Flags: W
PickledData: "(dp1
S'com.typemytype.robofont.layerData'
p2
(dp3
s."
LayerCount: 2
Fore
SplineSet
425 -14 m 0
 544 -14 693 0 820 116 c 1
 899 25 1006 -14 1137 -14 c 0
 1259 -14 1390 35 1507 149 c 1
 1474 204 l 1
 1384 105 1262 52 1140 52 c 0
 910 52 815 164 815 400 c 1
 1506 400 l 1
 1506 648 1375 854 1156 854 c 0
 988 854 870 766 803 641 c 1
 780 746 702 854 497 854 c 0
 363 854 253 826 179 755 c 1
 215 696 l 1
 275 757 370 787 495 787 c 0
 642 787 733 736 733 575 c 1
 739 446 l 1
 658 462 579 475 502 475 c 0
 324 475 139 452 139 232 c 0
 139 101 232 -14 425 -14 c 0
817 466 m 1
 826 623 939 787 1156 787 c 0
 1321 787 1415 632 1428 466 c 1
 817 466 l 1
790 164 m 1
 651 56 561 53 435 53 c 0
 273 53 220 148 220 230 c 0
 220 407 377 410 498 410 c 2
 510 410 l 2
 612 410 739 384 739 384 c 1
 739 326 760 224 790 164 c 1
EndSplineSet
EndChar

StartChar: ampersand
Encoding: 6 38 125
Width: 1198
VWidth: 0
Flags: W
PickledData: "(dp1
S'com.typemytype.robofont.layerData'
p2
(dp3
s."
LayerCount: 2
Fore
SplineSet
503 -23 m 0
 621 -23 744 -5 849 113 c 1
 951 0 l 1
 1145 0 l 1
 1145 68 l 1
 985 68 l 1
 901 171 l 1
 917 193 1005 324 1005 446 c 1
 1145 446 l 1
 1145 511 l 1
 949 511 l 1
 949 328 876 252 861 229 c 1
 512 676 l 1
 742 770 806 884 806 1024 c 0
 806 1154 697 1255 522 1255 c 0
 348 1255 243 1149 243 1022 c 0
 243 883 410 702 410 702 c 1
 177 626 109 505 109 323 c 0
 109 131 284 -23 503 -23 c 0
477 728 m 1
 477 728 316 903 316 1020 c 0
 316 1119 409 1183 525 1183 c 0
 638 1183 731 1130 731 1022 c 0
 731 891 686 809 477 728 c 1
511 48 m 0
 312 48 182 187 182 335 c 0
 182 467 236 584 447 646 c 1
 810 170 l 1
 716 62 622 48 511 48 c 0
EndSplineSet
EndChar

StartChar: approxequal
Encoding: 389 8776 127
Width: 815
VWidth: 0
Flags: W
PickledData: "(dp1
S'com.typemytype.robofont.layerData'
p2
(dp3
s."
LayerCount: 2
Fore
SplineSet
170 445 m 1
 178 472 193 486 229 486 c 0
 320 486 416 439 544 439 c 0
 616 439 659 488 668 570 c 1
 631 570 l 1
 622 542 594 527 557 527 c 0
 469 527 371 574 256 574 c 0
 193 574 142 535 132 445 c 1
 170 445 l 1
181 644 m 1
 188 671 204 685 240 685 c 0
 331 685 427 638 554 638 c 0
 626 638 670 688 679 769 c 1
 642 769 l 1
 632 742 605 726 568 726 c 0
 480 726 382 773 266 773 c 0
 204 773 152 734 143 644 c 1
 181 644 l 1
EndSplineSet
EndChar

StartChar: asciicircum
Encoding: 62 94 129
Width: 887
VWidth: 0
Flags: W
PickledData: "(dp1
S'com.typemytype.robofont.layerData'
p2
(dp3
s."
LayerCount: 2
Fore
SplineSet
492 1255 m 1
 407 1255 l 1
 61 761 l 1
 135 761 l 1
 449 1186 l 1
 750 761 l 1
 822 761 l 1
 492 1255 l 1
EndSplineSet
EndChar

StartChar: asciitilde
Encoding: 94 126 130
Width: 809
VWidth: 0
Flags: W
PickledData: "(dp1
S'com.typemytype.robofont.layerData'
p2
(dp3
s."
LayerCount: 2
Fore
SplineSet
174 1028 m 1
 182 1055 197 1069 233 1069 c 0
 324 1069 420 1022 548 1022 c 0
 620 1022 663 1072 672 1153 c 1
 635 1153 l 1
 626 1126 598 1110 561 1110 c 0
 473 1110 375 1157 260 1157 c 0
 197 1157 146 1118 136 1028 c 1
 174 1028 l 1
EndSplineSet
EndChar

StartChar: asterisk
Encoding: 10 42 131
Width: 939
VWidth: 0
Flags: W
PickledData: "(dp1
S'com.typemytype.robofont.layerData'
p2
(dp3
s."
LayerCount: 2
Fore
SplineSet
419 1229 m 1
 452 818 l 1
 77 992 l 1
 46 906 l 1
 442 785 l 1
 173 472 l 1
 249 415 l 1
 470 761 l 1
 690 415 l 1
 766 472 l 1
 497 785 l 1
 893 906 l 1
 862 992 l 1
 488 818 l 1
 520 1229 l 1
 419 1229 l 1
EndSplineSet
EndChar

StartChar: at
Encoding: 32 64 132
Width: 1493
VWidth: 0
Flags: W
PickledData: "(dp1
S'com.typemytype.robofont.layerData'
p2
(dp3
s."
LayerCount: 2
Fore
SplineSet
992 840 m 1
 941 944 847 983 764 983 c 0
 520 983 405 761 405 560 c 0
 405 358 533 252 657 252 c 0
 745 252 836 299 919 424 c 1
 894 298 963 252 1011 252 c 0
 1196 252 1385 486 1385 732 c 0
 1385 998 1217 1265 801 1265 c 0
 356 1265 112 920 112 588 c 0
 112 265 333 -43 811 -43 c 0
 999 -43 1129 1 1239 83 c 1
 1202 133 l 1
 1100 61 974 26 811 26 c 0
 419 26 200 248 200 586 c 0
 200 937 448 1194 797 1194 c 0
 1124 1194 1306 971 1306 732 c 0
 1306 466 1111 325 1035 325 c 0
 999 325 974 361 981 402 c 1
 1103 962 l 1
 1016 962 l 1
 992 840 l 1
949 701 m 0
 949 520 833 318 692 318 c 0
 562 318 499 430 499 559 c 0
 499 721 587 913 752 913 c 0
 869 913 949 829 949 701 c 0
EndSplineSet
EndChar

StartChar: b
Encoding: 66 98 134
Width: 1231
VWidth: 0
Flags: W
PickledData: "(dp1
S'com.typemytype.robofont.layerData'
p2
(dp3
s."
LayerCount: 2
Fore
SplineSet
124 1234 m 1
 124 1174 l 1
 273 1174 l 1
 273 60 l 1
 108 60 l 1
 108 0 l 1
 339 0 l 1
 343 41 347 82 352 125 c 1
 399 73 528 -14 693 -14 c 0
 1012 -14 1129 240 1129 434 c 0
 1129 644 976 854 690 854 c 0
 540 854 427 784 352 695 c 1
 352 1234 l 1
 124 1234 l 1
1050 426 m 0
 1050 245 936 53 696 53 c 0
 574 53 497 82 352 193 c 1
 352 619 l 1
 486 756 567 787 694 787 c 0
 914 787 1050 624 1050 426 c 0
EndSplineSet
EndChar

StartChar: backslash
Encoding: 60 92 135
Width: 468
VWidth: 0
Flags: W
PickledData: "(dp1
S'com.typemytype.robofont.layerData'
p2
(dp3
s."
LayerCount: 2
Fore
SplineSet
84 1255 m 1
 13 1255 l 1
 380 -23 l 1
 456 -23 l 1
 84 1255 l 1
EndSplineSet
EndChar

StartChar: bar
Encoding: 92 124 136
Width: 389
VWidth: 0
Flags: W
PickledData: "(dp1
S'com.typemytype.robofont.layerData'
p2
(dp3
s."
LayerCount: 2
Fore
SplineSet
165 -23 m 1
 233 -23 l 1
 233 1255 l 1
 165 1255 l 1
 165 -23 l 1
EndSplineSet
EndChar

StartChar: braceleft
Encoding: 91 123 137
Width: 477
VWidth: 0
Flags: W
PickledData: "(dp1
S'com.typemytype.robofont.layerData'
p2
(dp3
s."
LayerCount: 2
Fore
SplineSet
22 574 m 1
 163 574 170 519 170 347 c 0
 170 106 175 -23 364 -23 c 2
 429 -23 l 1
 429 31 l 1
 288 31 255 58 255 228 c 0
 255 476 242 608 118 616 c 1
 242 623 255 756 255 1004 c 0
 255 1175 288 1201 429 1201 c 1
 429 1255 l 1
 364 1255 l 2
 175 1255 170 1126 170 908 c 0
 170 719 170 658 22 658 c 1
 22 574 l 1
EndSplineSet
EndChar

StartChar: braceright
Encoding: 93 125 138
Width: 479
VWidth: 0
Flags: W
PickledData: "(dp1
S'com.typemytype.robofont.layerData'
p2
(dp3
s."
LayerCount: 2
Fore
SplineSet
455 658 m 1
 315 658 308 713 308 941 c 0
 308 1126 303 1255 113 1255 c 2
 48 1255 l 1
 48 1201 l 1
 190 1201 222 1175 222 1004 c 0
 222 756 236 623 359 616 c 1
 236 608 222 476 222 228 c 0
 222 58 190 31 48 31 c 1
 48 -23 l 1
 113 -23 l 2
 303 -23 308 106 308 290 c 0
 308 514 308 574 455 574 c 1
 455 658 l 1
EndSplineSet
EndChar

StartChar: bracketleft
Encoding: 59 91 139
Width: 417
VWidth: 0
Flags: W
PickledData: "(dp1
S'com.typemytype.robofont.layerData'
p2
(dp3
s."
LayerCount: 2
Fore
SplineSet
165 1255 m 1
 165 -23 l 1
 407 -23 l 1
 407 40 l 1
 247 40 l 1
 247 1193 l 1
 407 1193 l 1
 407 1255 l 1
 165 1255 l 1
EndSplineSet
EndChar

StartChar: bracketright
Encoding: 61 93 140
Width: 415
VWidth: 0
Flags: W
PickledData: "(dp1
S'com.typemytype.robofont.layerData'
p2
(dp3
s."
LayerCount: 2
Fore
SplineSet
10 1255 m 1
 10 1193 l 1
 171 1193 l 1
 171 40 l 1
 10 40 l 1
 10 -23 l 1
 252 -23 l 1
 252 1255 l 1
 10 1255 l 1
EndSplineSet
EndChar

StartChar: breve
Encoding: 340 728 141
Width: 333
VWidth: 0
Flags: W
PickledData: "(dp1
S'com.typemytype.robofont.layerData'
p2
(dp3
s."
LayerCount: 2
Fore
SplineSet
3 1248 m 1
 17 1136 93 1080 168 1080 c 0
 244 1080 318 1136 329 1248 c 1
 286 1248 l 1
 275 1172 222 1136 168 1136 c 0
 114 1136 60 1174 54 1248 c 1
 3 1248 l 1
EndSplineSet
EndChar

StartChar: brokenbar
Encoding: 101 166 142
Width: 414
VWidth: 0
Flags: W
PickledData: "(dp1
S'com.typemytype.robofont.layerData'
p2
(dp3
s."
LayerCount: 2
Fore
SplineSet
172 715 m 1
 240 715 l 1
 240 1255 l 1
 172 1255 l 1
 172 715 l 1
172 -24 m 1
 240 -24 l 1
 240 516 l 1
 172 516 l 1
 172 -24 l 1
EndSplineSet
EndChar

StartChar: bullet
Encoding: 366 8226 143
Width: 708
VWidth: 0
Flags: W
PickledData: "(dp1
S'com.typemytype.robofont.layerData'
p2
(dp3
s."
LayerCount: 2
Fore
SplineSet
354 905 m 0
 220 905 114 804 114 674 c 0
 114 546 220 442 354 442 c 0
 487 442 595 546 595 674 c 0
 595 804 487 905 354 905 c 0
EndSplineSet
EndChar

StartChar: c
Encoding: 67 99 144
Width: 1018
VWidth: 0
Flags: W
PickledData: "(dp1
S'com.typemytype.robofont.layerData'
p2
(dp3
s."
LayerCount: 2
Fore
SplineSet
541 -14 m 1
 664 -14 798 35 912 149 c 1
 889 222 l 1
 803 110 672 54 545 54 c 1
 357 58 184 191 184 413 c 0
 184 662 358 787 545 787 c 0
 743 787 808 690 817 600 c 1
 883 600 l 1
 883 860 l 1
 807 860 l 1
 807 750 l 1
 774 803 676 854 545 854 c 1
 270 850 102 668 102 416 c 0
 102 157 312 -11 541 -14 c 1
EndSplineSet
EndChar

StartChar: caron
Encoding: 339 711 146
Width: 420
VWidth: 0
Flags: W
PickledData: "(dp1
S'com.typemytype.robofont.layerData'
p2
(dp3
s."
LayerCount: 2
Fore
SplineSet
21 1195 m 1
 160 922 l 1
 255 922 l 1
 401 1195 l 1
 312 1195 l 1
 208 971 l 1
 103 1195 l 1
 21 1195 l 1
EndSplineSet
EndChar

StartChar: cedilla
Encoding: 117 184 151
Width: 381
VWidth: 0
Flags: W
PickledData: "(dp1
S'com.typemytype.robofont.layerData'
p2
(dp3
s."
LayerCount: 2
Fore
SplineSet
80 -256 m 1
 108 -266 154 -276 200 -276 c 0
 279 -276 316 -236 316 -197 c 0
 316 -152 273 -108 192 -108 c 2
 180 -108 l 1
 219 6 l 1
 169 6 l 1
 111 -144 l 1
 169 -149 212 -166 212 -192 c 0
 212 -217 189 -224 163 -224 c 0
 132 -224 93 -214 80 -210 c 1
 80 -256 l 1
EndSplineSet
EndChar

StartChar: cent
Encoding: 97 162 152
Width: 906
VWidth: 0
Flags: W
PickledData: "(dp1
S'com.typemytype.robofont.layerData'
p2
(dp3
s."
LayerCount: 2
Fore
SplineSet
496 -14 m 1
 619 -14 753 35 867 149 c 1
 844 222 l 1
 758 110 627 54 500 54 c 0
 470 54 441 58 413 65 c 1
 616 773 l 1
 725 743 765 669 772 600 c 1
 838 600 l 1
 838 860 l 1
 762 860 l 1
 762 750 l 1
 741 783 696 815 634 834 c 1
 700 1064 l 1
 642 1064 l 1
 579 847 l 1
 554 851 528 854 500 854 c 0
 225 850 57 668 57 416 c 0
 57 219 178 75 337 15 c 1
 270 -214 l 1
 333 -214 l 1
 394 -1 l 1
 427 -9 461 -13 496 -14 c 1
139 413 m 0
 139 662 313 787 500 787 c 0
 522 787 542 785 560 783 c 1
 357 83 l 1
 232 134 139 249 139 413 c 0
EndSplineSet
EndChar

StartChar: circumflex
Encoding: 338 710 153
Width: 417
VWidth: 0
Flags: W
PickledData: "(dp1
S'com.typemytype.robofont.layerData'
p2
(dp3
s."
LayerCount: 2
Fore
SplineSet
101 922 m 1
 206 1146 l 1
 310 922 l 1
 399 922 l 1
 253 1195 l 1
 158 1195 l 1
 19 922 l 1
 101 922 l 1
EndSplineSet
EndChar

StartChar: colon
Encoding: 26 58 154
Width: 442
VWidth: 0
Flags: W
PickledData: "(dp1
S'com.typemytype.robofont.layerData'
p2
(dp3
s."
LayerCount: 2
Fore
SplineSet
165 815 m 1
 165 695 l 1
 282 695 l 1
 282 815 l 1
 165 815 l 1
165 314 m 1
 165 194 l 1
 282 194 l 1
 282 314 l 1
 165 314 l 1
EndSplineSet
EndChar

StartChar: comma
Encoding: 12 44 155
Width: 399
VWidth: 0
Flags: W
PickledData: "(dp1
S'com.typemytype.robofont.layerData'
p2
(dp3
s."
LayerCount: 2
Fore
SplineSet
161 116 m 1
 161 -4 l 1
 223 -4 l 1
 223 -88 218 -114 152 -136 c 1
 152 -180 l 1
 253 -180 287 -104 287 -6 c 2
 287 116 l 1
 161 116 l 1
EndSplineSet
EndChar

StartChar: commaaccent
Encoding: 65541 -1 156
Width: 399
VWidth: 0
Flags: W
PickledData: "(dp1
S'com.typemytype.robofont.layerData'
p2
(dp3
s."
LayerCount: 2
Fore
SplineSet
140 1237 m 1
 140 1117 l 1
 202 1117 l 1
 202 1033 197 1007 131 985 c 1
 131 941 l 1
 232 941 266 1016 266 1115 c 2
 266 1237 l 1
 140 1237 l 1
EndSplineSet
EndChar

StartChar: copyright
Encoding: 104 169 157
Width: 1516
VWidth: 0
Flags: W
PickledData: "(dp1
S'com.typemytype.robofont.layerData'
p2
(dp3
s."
LayerCount: 2
Fore
SplineSet
757 241 m 1
 860 241 974 282 1070 379 c 1
 1048 448 l 1
 976 353 865 305 760 305 c 0
 605 305 463 419 463 600 c 0
 463 805 607 910 760 910 c 0
 923 910 976 828 985 754 c 1
 1046 754 l 1
 1046 977 l 1
 975 977 l 1
 975 895 l 1
 945 937 867 972 760 972 c 1
 529 967 387 815 387 602 c 0
 387 385 563 244 757 241 c 1
758 34 m 0
 374 34 188 318 188 617 c 0
 188 904 379 1199 758 1199 c 0
 1133 1199 1329 904 1329 617 c 0
 1329 328 1135 34 758 34 c 0
758 -23 m 0
 1187 -23 1400 296 1400 616 c 0
 1400 937 1185 1258 758 1258 c 0
 333 1258 116 937 116 616 c 0
 116 296 331 -23 758 -23 c 0
EndSplineSet
EndChar

StartChar: currency
Encoding: 99 164 158
Width: 1068
VWidth: 0
Flags: W
PickledData: "(dp1
S'com.typemytype.robofont.layerData'
p2
(dp3
s."
LayerCount: 2
Fore
SplineSet
221 982 m 0
 221 1192 376 1302 531 1302 c 0
 688 1302 846 1196 846 982 c 0
 846 768 688 662 531 662 c 0
 376 662 221 772 221 982 c 0
247 712 m 1
 145 611 l 1
 202 562 l 1
 299 665 l 1
 378 618 456 596 533 596 c 0
 614 596 694 620 775 667 c 1
 872 561 l 1
 924 611 l 1
 819 714 l 1
 881 800 912 892 912 984 c 0
 912 1076 881 1168 819 1250 c 1
 924 1353 l 1
 872 1403 l 1
 775 1297 l 1
 689 1344 609 1368 529 1368 c 0
 453 1368 377 1345 299 1299 c 1
 202 1402 l 1
 145 1353 l 1
 247 1252 l 1
 181 1174 148 1075 148 978 c 0
 148 881 181 785 247 712 c 1
EndSplineSet
EndChar

StartChar: d
Encoding: 68 100 159
Width: 1197
VWidth: 0
Flags: W
PickledData: "(dp1
S'com.typemytype.robofont.layerData'
p2
(dp3
s."
LayerCount: 2
Fore
SplineSet
678 1234 m 1
 678 1174 l 1
 882 1174 l 1
 882 695 l 1
 807 784 691 854 541 854 c 0
 255 854 102 644 102 434 c 0
 102 240 219 -14 538 -14 c 0
 703 -14 835 73 882 125 c 1
 895 0 l 1
 1105 0 l 1
 1105 60 l 1
 961 60 l 1
 961 1234 l 1
 678 1234 l 1
181 426 m 0
 181 624 317 787 537 787 c 0
 664 787 748 756 882 619 c 1
 882 193 l 1
 737 82 657 53 535 53 c 0
 295 53 181 245 181 426 c 0
EndSplineSet
EndChar

StartChar: dagger
Encoding: 390 8224 160
Width: 522
VWidth: 0
Flags: W
PickledData: "(dp1
S'com.typemytype.robofont.layerData'
p2
(dp3
s."
LayerCount: 2
Fore
SplineSet
509 862 m 1
 509 941 l 1
 282 923 l 1
 315 1210 l 1
 209 1210 l 1
 242 923 l 1
 12 941 l 1
 12 862 l 1
 242 887 l 1
 222 780 216 684 216 590 c 0
 216 404 242 229 242 2 c 1
 282 2 l 1
 282 227 308 406 308 593 c 0
 308 686 302 782 282 887 c 1
 509 862 l 1
EndSplineSet
EndChar

StartChar: daggerdbl
Encoding: 365 8225 161
Width: 536
VWidth: 0
Flags: W
PickledData: "(dp1
S'com.typemytype.robofont.layerData'
p2
(dp3
s."
LayerCount: 2
Fore
SplineSet
249 887 m 1
 239 835 235 714 235 593 c 0
 235 472 239 350 249 299 c 1
 19 324 l 1
 19 245 l 1
 249 263 l 1
 216 -24 l 1
 322 -24 l 1
 289 263 l 1
 516 245 l 1
 516 324 l 1
 289 299 l 1
 298 349 303 467 303 587 c 0
 303 709 298 834 289 887 c 1
 516 862 l 1
 516 941 l 1
 289 923 l 1
 322 1210 l 1
 216 1210 l 1
 249 923 l 1
 19 941 l 1
 19 862 l 1
 249 887 l 1
EndSplineSet
EndChar

StartChar: dcroat
Encoding: 203 273 163
Width: 1104
VWidth: 0
Flags: W
PickledData: "(dp1
S'com.typemytype.robofont.layerData'
p2
(dp3
s."
LayerCount: 2
Fore
SplineSet
118 426 m 0
 118 624 254 787 474 787 c 0
 601 787 703 756 837 619 c 1
 837 193 l 1
 692 82 594 53 472 53 c 0
 232 53 118 245 118 426 c 0
633 1234 m 1
 633 1174 l 1
 837 1174 l 1
 837 1042 l 1
 518 1042 l 1
 518 979 l 1
 837 979 l 1
 837 695 l 1
 762 784 628 854 478 854 c 0
 192 854 39 644 39 434 c 0
 39 240 156 -14 475 -14 c 0
 640 -14 790 73 837 125 c 1
 850 0 l 1
 1081 0 l 1
 1081 60 l 1
 916 60 l 1
 916 979 l 1
 1078 979 l 1
 1078 1042 l 1
 916 1042 l 1
 916 1234 l 1
 633 1234 l 1
EndSplineSet
EndChar

StartChar: degree
Encoding: 111 176 164
Width: 845
VWidth: 0
Flags: W
PickledData: "(dp1
S'com.typemytype.robofont.layerData'
p2
(dp3
s."
LayerCount: 2
Fore
SplineSet
423 1239 m 0
 537 1239 619 1166 619 1052 c 0
 619 938 537 865 423 865 c 0
 309 865 227 938 227 1052 c 0
 227 1166 309 1239 423 1239 c 0
423 768 m 0
 572 768 730 863 730 1052 c 0
 730 1241 572 1336 423 1336 c 0
 274 1336 116 1241 116 1052 c 0
 116 863 274 768 423 768 c 0
EndSplineSet
EndChar

StartChar: dieresis
Encoding: 103 168 165
Width: 374
VWidth: 0
Flags: W
PickledData: "(dp1
S'com.typemytype.robofont.layerData'
p2
(dp3
s."
LayerCount: 2
Fore
SplineSet
258 1046 m 1
 258 940 l 1
 358 940 l 1
 358 1046 l 1
 258 1046 l 1
16 1046 m 1
 16 940 l 1
 116 940 l 1
 116 1046 l 1
 16 1046 l 1
EndSplineSet
EndChar

StartChar: divide
Encoding: 179 247 166
Width: 575
VWidth: 0
Flags: W
PickledData: "(dp1
S'com.typemytype.robofont.layerData'
p2
(dp3
s."
LayerCount: 2
Fore
SplineSet
551 413 m 1
 551 475 l 1
 22 475 l 1
 22 413 l 1
 551 413 l 1
230 276 m 1
 230 156 l 1
 346 156 l 1
 346 276 l 1
 230 276 l 1
230 725 m 1
 230 605 l 1
 346 605 l 1
 346 725 l 1
 230 725 l 1
EndSplineSet
EndChar

StartChar: dollar
Encoding: 4 36 167
Width: 1064
VWidth: 0
Flags: W
PickledData: "(dp1
S'com.typemytype.robofont.layerData'
p2
(dp3
s."
LayerCount: 2
Fore
SplineSet
573 -23 m 1
 888 -23 991 184 991 317 c 0
 991 571 797 636 571 663 c 1
 571 1178 l 1
 694 1165 787 1116 841 1080 c 1
 841 899 l 1
 920 899 l 1
 920 1234 l 1
 841 1234 l 1
 841 1163 l 1
 752 1210 663 1240 571 1250 c 1
 571 1421 l 1
 511 1421 l 1
 511 1255 l 1
 279 1255 85 1142 85 925 c 0
 85 684 246 621 511 594 c 1
 511 57 l 1
 385 71 281 116 173 196 c 1
 173 416 l 1
 94 416 l 1
 94 0 l 1
 173 0 l 1
 173 112 l 1
 275 41 387 -7 511 -20 c 1
 511 -190 l 1
 571 -190 l 1
 573 -23 l 1
176 912 m 0
 176 1069 283 1182 511 1182 c 1
 511 670 l 1
 312 691 176 724 176 912 c 0
902 322 m 0
 902 174 752 35 571 53 c 1
 571 587 l 1
 776 560 902 508 902 322 c 0
EndSplineSet
EndChar

StartChar: dotaccent
Encoding: 341 729 168
Width: 126
VWidth: 0
Flags: W
PickledData: "(dp1
S'com.typemytype.robofont.layerData'
p2
(dp3
s."
LayerCount: 2
Fore
SplineSet
5 1184 m 1
 5 1064 l 1
 121 1064 l 1
 121 1184 l 1
 5 1184 l 1
EndSplineSet
EndChar

StartChar: dotlessi
Encoding: 231 305 169
Width: 510
VWidth: 0
Flags: W
PickledData: "(dp1
S'com.typemytype.robofont.layerData'
p2
(dp3
s."
LayerCount: 2
Fore
SplineSet
227 776 m 1
 227 60 l 1
 77 60 l 1
 77 0 l 1
 460 0 l 1
 460 60 l 1
 306 60 l 1
 306 836 l 1
 77 836 l 1
 77 776 l 1
 227 776 l 1
EndSplineSet
EndChar

StartChar: e
Encoding: 69 101 170
Width: 1028
VWidth: 0
Flags: W
PickledData: "(dp1
S'com.typemytype.robofont.layerData'
p2
(dp3
s."
LayerCount: 2
Fore
SplineSet
184 400 m 1
 935 400 l 1
 935 648 790 854 549 854 c 0
 251 854 102 637 102 420 c 0
 102 169 294 -14 530 -14 c 0
 656 -14 791 35 912 149 c 1
 879 204 l 1
 786 106 659 52 533 52 c 0
 358 52 200 169 184 400 c 1
186 466 m 1
 195 623 317 787 549 787 c 0
 736 787 842 632 857 466 c 1
 186 466 l 1
EndSplineSet
EndChar

StartChar: edotaccent
Encoding: 65542 279 175
Width: 945
VWidth: 0
Flags: W
PickledData: "(dp1
S'com.typemytype.robofont.layerData'
p2
(dp3
s."
LayerCount: 2
Fore
SplineSet
415 1184 m 1
 415 1064 l 1
 531 1064 l 1
 531 1184 l 1
 415 1184 l 1
133 400 m 1
 884 400 l 1
 884 648 739 854 498 854 c 0
 200 854 51 637 51 420 c 0
 51 169 243 -14 479 -14 c 0
 605 -14 740 35 861 149 c 1
 828 204 l 1
 735 106 608 52 482 52 c 0
 307 52 149 169 133 400 c 1
135 466 m 1
 144 623 266 787 498 787 c 0
 685 787 791 632 806 466 c 1
 135 466 l 1
EndSplineSet
EndChar

StartChar: eight
Encoding: 24 56 177
Width: 1053
VWidth: 0
Flags: W
PickledData: "(dp1
S'com.typemytype.robofont.layerData'
p2
(dp3
s."
LayerCount: 2
Fore
SplineSet
938 318 m 0
 938 476 833 611 670 644 c 1
 817 683 898 817 898 938 c 0
 898 1097 768 1255 527 1255 c 0
 286 1255 156 1097 156 938 c 0
 156 817 226 692 384 644 c 1
 221 611 115 476 115 318 c 0
 115 86 319 -24 526 -24 c 0
 731 -24 938 85 938 318 c 0
527 596 m 1
 743 595 854 458 854 322 c 0
 854 142 691 49 526 49 c 0
 364 49 199 139 199 322 c 0
 199 458 311 595 527 596 c 1
527 1182 m 0
 718 1182 812 1062 812 937 c 0
 812 811 716 679 527 679 c 0
 337 679 241 811 241 937 c 0
 241 1062 336 1182 527 1182 c 0
EndSplineSet
EndChar

StartChar: ellipsis
Encoding: 391 8230 178
Width: 966
VWidth: 0
Flags: W
PickledData: "(dp1
S'com.typemytype.robofont.layerData'
p2
(dp3
s."
LayerCount: 2
Fore
SplineSet
165 120 m 1
 165 0 l 1
 281 0 l 1
 281 120 l 1
 165 120 l 1
425 120 m 1
 425 0 l 1
 542 0 l 1
 542 120 l 1
 425 120 l 1
686 120 m 1
 686 0 l 1
 802 0 l 1
 802 120 l 1
 686 120 l 1
EndSplineSet
EndChar

StartChar: emdash
Encoding: 358 8212 180
Width: 1406
VWidth: 0
Flags: W
PickledData: "(dp1
S'com.typemytype.robofont.layerData'
p2
(dp3
s."
LayerCount: 2
Fore
SplineSet
165 60 m 1
 165 0 l 1
 1242 0 l 1
 1242 60 l 1
 165 60 l 1
EndSplineSet
EndChar

StartChar: endash
Encoding: 357 8211 181
Width: 1045
VWidth: 0
Flags: W
PickledData: "(dp1
S'com.typemytype.robofont.layerData'
p2
(dp3
s."
LayerCount: 2
Fore
SplineSet
165 60 m 1
 165 0 l 1
 881 0 l 1
 881 60 l 1
 165 60 l 1
EndSplineSet
EndChar

StartChar: equal
Encoding: 29 61 183
Width: 838
VWidth: 0
Flags: W
PickledData: "(dp1
S'com.typemytype.robofont.layerData'
p2
(dp3
s."
LayerCount: 2
Fore
SplineSet
674 696 m 1
 165 696 l 1
 165 634 l 1
 674 634 l 1
 674 696 l 1
674 419 m 1
 165 419 l 1
 165 356 l 1
 674 356 l 1
 674 419 l 1
EndSplineSet
EndChar

StartChar: eth
Encoding: 172 240 184
Width: 920
VWidth: 0
Flags: W
PickledData: "(dp1
S'com.typemytype.robofont.layerData'
p2
(dp3
s."
LayerCount: 2
Fore
SplineSet
114 1301 m 1
 183 1247 261 1191 323 1132 c 1
 75 1040 l 1
 103 987 l 1
 369 1088 l 1
 515 959 622 825 691 690 c 1
 619 760 515 796 436 796 c 0
 230 796 53 632 53 421 c 0
 53 193 191 -23 452 -23 c 0
 662 -23 839 129 839 391 c 0
 839 523 780 786 430 1118 c 1
 693 1220 l 1
 664 1270 l 1
 385 1163 l 1
 320 1226 244 1283 159 1351 c 1
 114 1301 l 1
135 404 m 0
 135 620 291 728 447 728 c 0
 604 728 762 617 762 394 c 0
 762 219 662 49 452 49 c 0
 239 49 135 227 135 404 c 0
EndSplineSet
EndChar

StartChar: exclam
Encoding: 1 33 185
Width: 257
VWidth: 0
Flags: W
PickledData: "(dp1
S'com.typemytype.robofont.layerData'
p2
(dp3
s."
LayerCount: 2
Fore
SplineSet
144 344 m 1
 173 809 l 1
 173 1235 l 1
 84 1235 l 1
 84 809 l 1
 113 344 l 1
 144 344 l 1
77 0 m 1
 180 0 l 1
 180 106 l 1
 77 106 l 1
 77 0 l 1
EndSplineSet
EndChar

StartChar: exclamdown
Encoding: 96 161 186
Width: 262
VWidth: 0
Flags: W
PickledData: "(dp1
S'com.typemytype.robofont.layerData'
p2
(dp3
s."
LayerCount: 2
Fore
SplineSet
90 1066 m 1
 195 1066 l 1
 195 1171 l 1
 90 1171 l 1
 90 1066 l 1
126 827 m 1
 90 362 l 1
 90 0 l 1
 186 0 l 1
 186 362 l 1
 157 827 l 1
 126 827 l 1
EndSplineSet
EndChar

StartChar: f
Encoding: 70 102 187
Width: 689
VWidth: 0
Flags: W
PickledData: "(dp1
S'com.typemytype.robofont.layerData'
p2
(dp3
s."
LayerCount: 2
Fore
SplineSet
108 0 m 1
 533 0 l 1
 533 60 l 1
 342 60 l 1
 342 779 l 1
 568 779 l 1
 568 836 l 1
 342 836 l 1
 342 1051 l 2
 342 1129 397 1172 450 1172 c 0
 500 1172 555 1155 569 1066 c 1
 624 1086 l 1
 608 1199 534 1234 447 1234 c 0
 356 1234 263 1170 263 1049 c 2
 263 836 l 1
 108 836 l 1
 108 779 l 1
 263 779 l 1
 263 60 l 1
 108 60 l 1
 108 0 l 1
EndSplineSet
EndChar

StartChar: ff
Encoding: 65543 -1 188
Width: 968
VWidth: 0
Flags: W
PickledData: "(dp1
S'com.typemytype.robofont.layerData'
p2
(dp3
s."
LayerCount: 2
Fore
SplineSet
485 0 m 1
 910 0 l 1
 910 60 l 1
 719 60 l 1
 719 779 l 1
 939 779 l 1
 939 836 l 1
 719 836 l 1
 719 1066 l 2
 719 1134 768 1172 816 1172 c 0
 861 1172 905 1138 905 1066 c 1
 980 1066 l 1
 977 1180 895 1234 813 1234 c 0
 727 1234 640 1175 640 1064 c 2
 640 836 l 1
 235 836 l 1
 235 1066 l 2
 235 1134 282 1172 328 1172 c 0
 371 1172 414 1138 414 1066 c 1
 489 1066 l 1
 486 1180 406 1234 325 1234 c 0
 241 1234 156 1175 156 1064 c 2
 156 836 l 1
 1 836 l 1
 1 779 l 1
 156 779 l 1
 156 60 l 1
 1 60 l 1
 1 0 l 1
 411 0 l 1
 411 60 l 1
 235 60 l 1
 235 779 l 1
 640 779 l 1
 640 60 l 1
 485 60 l 1
 485 0 l 1
EndSplineSet
EndChar

StartChar: ffi
Encoding: 65544 -1 189
Width: 1364
VWidth: 0
Flags: W
PickledData: "(dp1
S'com.typemytype.robofont.layerData'
p2
(dp3
s."
LayerCount: 2
Fore
SplineSet
1132 778 m 1
 1132 60 l 1
 982 60 l 1
 982 0 l 1
 1364 0 l 1
 1364 60 l 1
 1211 60 l 1
 1211 836 l 1
 718 836 l 1
 718 972 l 2
 718 1109 838 1186 948 1186 c 0
 1018 1186 1085 1168 1130 1130 c 1
 1112 1120 1102 1100 1102 1081 c 0
 1102 1054 1127 1025 1169 1025 c 0
 1206 1025 1231 1056 1231 1090 c 0
 1231 1199 1075 1248 946 1248 c 0
 859 1248 765 1211 705 1144 c 1
 656 1205 552 1234 446 1234 c 0
 302 1234 156 1144 156 974 c 2
 156 836 l 1
 1 836 l 1
 1 778 l 1
 156 778 l 1
 156 60 l 1
 1 60 l 1
 1 0 l 1
 396 0 l 1
 396 60 l 1
 235 60 l 1
 235 778 l 1
 639 778 l 1
 639 60 l 1
 484 60 l 1
 484 0 l 1
 889 0 l 1
 889 60 l 1
 718 60 l 1
 718 778 l 1
 1132 778 l 1
659 1071 m 1
 646 1041 639 1007 639 970 c 2
 639 836 l 1
 235 836 l 1
 235 976 l 2
 235 1102 345 1172 452 1172 c 0
 556 1172 657 1140 659 1071 c 1
EndSplineSet
EndChar

StartChar: ffl
Encoding: 65545 -1 190
Width: 1522
VWidth: 0
Flags: W
PickledData: "(dp1
S'com.typemytype.robofont.layerData'
p2
(dp3
s."
LayerCount: 2
Fore
SplineSet
1256 1174 m 1
 1256 60 l 1
 1070 60 l 1
 1070 0 l 1
 1519 0 l 1
 1519 60 l 1
 1335 60 l 1
 1335 1234 l 1
 1070 1234 l 1
 1070 1174 l 1
 1256 1174 l 1
542 0 m 1
 967 0 l 1
 967 60 l 1
 776 60 l 1
 776 779 l 1
 1002 779 l 1
 1002 836 l 1
 776 836 l 1
 776 1051 l 2
 776 1129 831 1172 884 1172 c 0
 934 1172 989 1155 1003 1066 c 1
 1058 1086 l 1
 1042 1199 968 1234 881 1234 c 0
 790 1234 697 1170 697 1049 c 2
 697 836 l 1
 542 836 l 1
 542 779 l 1
 697 779 l 1
 697 60 l 1
 542 60 l 1
 542 0 l 1
14 0 m 1
 439 0 l 1
 439 60 l 1
 248 60 l 1
 248 779 l 1
 474 779 l 1
 474 836 l 1
 248 836 l 1
 248 1051 l 2
 248 1129 303 1172 356 1172 c 0
 406 1172 461 1155 475 1066 c 1
 530 1086 l 1
 514 1199 440 1234 353 1234 c 0
 262 1234 169 1170 169 1049 c 2
 169 836 l 1
 14 836 l 1
 14 779 l 1
 169 779 l 1
 169 60 l 1
 14 60 l 1
 14 0 l 1
EndSplineSet
EndChar

StartChar: uniFB01
Encoding: 374 64257 191
Width: 1127
VWidth: 0
Flags: W
PickledData: "(dp1
S'com.typemytype.robofont.layerData'
p2
(dp3
s."
LayerCount: 2
Fore
SplineSet
804 776 m 1
 804 60 l 1
 654 60 l 1
 654 0 l 1
 1036 0 l 1
 1036 60 l 1
 883 60 l 1
 883 836 l 1
 320 836 l 1
 320 972 l 2
 320 1109 477 1186 620 1186 c 0
 690 1186 757 1168 802 1130 c 1
 784 1120 774 1100 774 1081 c 0
 774 1054 799 1025 841 1025 c 0
 878 1025 903 1056 903 1090 c 0
 903 1199 747 1248 618 1248 c 0
 439 1248 241 1145 241 970 c 2
 241 836 l 1
 86 836 l 1
 86 776 l 1
 241 776 l 1
 241 60 l 1
 86 60 l 1
 86 0 l 1
 511 0 l 1
 511 60 l 1
 320 60 l 1
 320 776 l 1
 804 776 l 1
EndSplineSet
EndChar

StartChar: five
Encoding: 21 53 192
Width: 1102
VWidth: 0
Flags: W
PickledData: "(dp1
S'com.typemytype.robofont.layerData'
p2
(dp3
s."
LayerCount: 2
Fore
SplineSet
154 247 m 1
 107 193 l 1
 204 61 371 -18 528 -18 c 0
 777 -18 987 113 987 380 c 0
 987 650 816 816 571 816 c 0
 472 816 337 783 266 708 c 1
 275 1164 l 1
 804 1164 l 1
 804 1011 l 1
 879 1011 l 1
 879 1234 l 1
 196 1234 l 1
 196 665 l 1
 259 630 l 1
 351 714 462 747 582 747 c 0
 776 747 903 596 903 384 c 0
 903 152 744 53 527 53 c 0
 388 53 234 125 154 247 c 1
EndSplineSet
EndChar

StartChar: uni0000
Encoding: 65546 0 193
Width: 919
VWidth: 0
Flags: W
PickledData: "(dp1
S'com.typemytype.robofont.layerData'
p2
(dp3
s."
LayerCount: 2
Fore
SplineSet
1 0 m 1
 426 0 l 1
 426 60 l 1
 235 60 l 1
 235 779 l 1
 702 779 l 1
 702 -34 l 2
 702 -149 702 -211 565 -211 c 2
 487 -211 l 1
 487 -271 l 1
 567 -271 l 2
 781 -271 781 -143 781 -22 c 2
 781 836 l 1
 235 836 l 1
 235 1066 l 2
 235 1134 281 1172 325 1172 c 0
 367 1172 404 1138 404 1066 c 1
 479 1066 l 1
 476 1180 401 1234 323 1234 c 0
 240 1234 156 1174 156 1064 c 2
 156 836 l 1
 1 836 l 1
 1 779 l 1
 156 779 l 1
 156 60 l 1
 1 60 l 1
 1 0 l 1
732 1205 m 0
 690 1205 670 1177 670 1148 c 0
 670 1121 690 1092 732 1092 c 0
 773 1092 794 1121 794 1148 c 0
 794 1177 774 1205 732 1205 c 0
EndSplineSet
EndChar

StartChar: uniFB02
Encoding: 375 64258 194
Width: 1195
VWidth: 0
Flags: W
PickledData: "(dp1
S'com.typemytype.robofont.layerData'
p2
(dp3
s."
LayerCount: 2
Fore
SplineSet
848 60 m 1
 662 60 l 1
 662 0 l 1
 1111 0 l 1
 1111 60 l 1
 928 60 l 1
 928 1123 l 2
 928 1210 790 1253 638 1253 c 0
 452 1253 245 1163 245 962 c 2
 245 836 l 1
 90 836 l 1
 90 779 l 1
 245 779 l 1
 245 60 l 1
 90 60 l 1
 90 0 l 1
 515 0 l 1
 515 60 l 1
 324 60 l 1
 324 779 l 1
 527 779 l 1
 527 836 l 1
 324 836 l 1
 324 965 l 2
 324 1123 491 1190 637 1190 c 0
 749 1190 848 1163 848 1123 c 2
 848 60 l 1
EndSplineSet
EndChar

StartChar: florin
Encoding: 392 402 195
Width: 767
VWidth: 0
Flags: W
PickledData: "(dp1
S'com.typemytype.robofont.layerData'
p2
(dp3
s."
LayerCount: 2
Fore
SplineSet
759 1219 m 1
 721 1236 679 1244 645 1244 c 0
 551 1244 483 1183 457 1078 c 1
 389 836 l 1
 235 836 l 1
 219 779 l 1
 374 779 l 1
 176 60 l 2
 153 -24 87 -24 33 -24 c 1
 17 -86 l 1
 109 -86 215 -86 255 60 c 2
 453 779 l 1
 656 779 l 1
 671 836 l 1
 469 836 l 1
 536 1080 l 1
 553 1157 599 1183 649 1183 c 0
 681 1183 715 1176 745 1165 c 1
 759 1219 l 1
EndSplineSet
EndChar

StartChar: four
Encoding: 20 52 197
Width: 929
VWidth: 0
Flags: W
PickledData: "(dp1
S'com.typemytype.robofont.layerData'
p2
(dp3
s."
LayerCount: 2
Fore
SplineSet
35 379 m 1
 542 379 l 1
 542 62 l 1
 381 62 l 1
 381 0 l 1
 784 0 l 1
 784 62 l 1
 623 62 l 1
 623 379 l 1
 880 379 l 1
 880 442 l 1
 623 442 l 1
 623 1234 l 1
 509 1234 l 1
 24 442 l 1
 35 379 l 1
117 442 m 1
 542 1156 l 1
 542 442 l 1
 117 442 l 1
EndSplineSet
EndChar

StartChar: fraction
Encoding: 369 8260 198
Width: 467
VWidth: 0
Flags: W
PickledData: "(dp1
S'com.typemytype.robofont.layerData'
p2
(dp3
s."
LayerCount: 2
Fore
SplineSet
12 -23 m 1
 87 -23 l 1
 455 1255 l 1
 384 1255 l 1
 12 -23 l 1
EndSplineSet
EndChar

StartChar: g
Encoding: 71 103 199
Width: 1157
VWidth: 0
Flags: W
PickledData: "(dp1
S'com.typemytype.robofont.layerData'
p2
(dp3
s."
LayerCount: 2
Fore
SplineSet
560 -333 m 0
 781 -333 946 -220 946 29 c 2
 946 779 l 1
 1076 779 l 1
 1076 836 l 1
 880 836 l 1
 867 715 l 1
 821 767 685 854 525 854 c 0
 221 854 102 610 102 416 c 0
 102 203 249 -14 534 -14 c 0
 679 -14 794 46 867 120 c 1
 867 12 l 2
 867 -166 753 -268 566 -268 c 0
 492 -268 406 -252 312 -219 c 1
 297 -287 l 1
 389 -317 478 -333 560 -333 c 0
529 53 m 0
 317 53 187 216 181 414 c 1
 181 594 287 787 523 787 c 0
 641 787 726 758 867 647 c 1
 867 190 l 1
 737 73 651 53 529 53 c 0
EndSplineSet
EndChar

StartChar: gcommaaccent
Encoding: 217 291 201
Width: 1049
VWidth: 0
Flags: W
PickledData: "(dp1
S'com.typemytype.robofont.layerData'
p2
(dp3
s."
LayerCount: 2
Fore
SplineSet
509 -333 m 0
 730 -333 895 -220 895 29 c 2
 895 779 l 1
 1025 779 l 1
 1025 836 l 1
 829 836 l 1
 816 715 l 1
 770 767 634 854 474 854 c 0
 170 854 51 610 51 416 c 0
 51 203 198 -14 483 -14 c 0
 628 -14 743 46 816 120 c 1
 816 12 l 2
 816 -166 702 -268 515 -268 c 0
 441 -268 355 -252 261 -219 c 1
 246 -287 l 1
 338 -317 427 -333 509 -333 c 0
478 53 m 0
 266 53 136 216 130 414 c 1
 130 594 236 787 472 787 c 0
 590 787 675 758 816 647 c 1
 816 190 l 1
 686 73 600 53 478 53 c 0
EndSplineSet
EndChar

StartChar: germandbls
Encoding: 155 223 204
Width: 1174
VWidth: 0
Flags: W
PickledData: "(dp1
S'com.typemytype.robofont.layerData'
p2
(dp3
s."
LayerCount: 2
Fore
SplineSet
319 62 m 1
 319 856 l 2
 319 1088 385 1180 591 1180 c 0
 768 1180 858 1072 858 955 c 0
 858 829 773 694 594 685 c 1
 594 641 l 1
 887 641 993 493 993 337 c 0
 993 122 798 62 586 62 c 1
 586 0 l 1
 925 0 1072 143 1072 337 c 0
 1072 517 935 668 718 676 c 1
 880 708 937 838 937 958 c 0
 937 1104 813 1255 587 1255 c 0
 340 1255 238 1106 238 851 c 2
 238 62 l 1
 85 62 l 1
 85 0 l 1
 435 0 l 1
 435 62 l 1
 319 62 l 1
EndSplineSet
EndChar

StartChar: grave
Encoding: 64 96 205
Width: 196
VWidth: 0
Flags: W
PickledData: "(dp1
S'com.typemytype.robofont.layerData'
p2
(dp3
s."
LayerCount: 2
Fore
SplineSet
188 985 m 1
 127 1234 l 1
 0 1234 l 1
 157 985 l 1
 188 985 l 1
EndSplineSet
EndChar

StartChar: greater
Encoding: 30 62 206
Width: 967
VWidth: 0
Flags: W
PickledData: "(dp1
S'com.typemytype.robofont.layerData'
p2
(dp3
s."
LayerCount: 2
Fore
SplineSet
964 596 m 1
 964 630 l 1
 139 1255 l 1
 139 1162 l 1
 872 613 l 1
 139 68 l 1
 139 -23 l 1
 964 596 l 1
EndSplineSet
EndChar

StartChar: greaterequal
Encoding: 393 8805 207
Width: 752
VWidth: 0
Flags: W
PickledData: "(dp1
S'com.typemytype.robofont.layerData'
p2
(dp3
s."
LayerCount: 2
Fore
SplineSet
745 553 m 1
 745 590 l 1
 57 952 l 1
 57 882 l 1
 639 571 l 1
 57 262 l 1
 57 194 l 1
 745 553 l 1
745 58 m 1
 57 58 l 1
 57 0 l 1
 745 0 l 1
 745 58 l 1
EndSplineSet
EndChar

StartChar: guillemotleft
Encoding: 106 171 208
Width: 779
VWidth: 0
Flags: W
PickledData: "(dp1
S'com.typemytype.robofont.layerData'
p2
(dp3
s."
LayerCount: 2
Fore
SplineSet
324 664 m 1
 597 281 l 1
 645 281 l 1
 432 664 l 1
 645 1043 l 1
 597 1043 l 1
 324 664 l 1
57 664 m 1
 329 281 l 1
 377 281 l 1
 165 664 l 1
 377 1043 l 1
 329 1043 l 1
 57 664 l 1
EndSplineSet
EndChar

StartChar: guillemotright
Encoding: 119 187 209
Width: 779
VWidth: 0
Flags: W
PickledData: "(dp1
S'com.typemytype.robofont.layerData'
p2
(dp3
s."
LayerCount: 2
Fore
SplineSet
182 1043 m 1
 134 1043 l 1
 346 664 l 1
 134 281 l 1
 182 281 l 1
 454 664 l 1
 182 1043 l 1
449 1043 m 1
 401 1043 l 1
 614 664 l 1
 401 281 l 1
 449 281 l 1
 722 664 l 1
 449 1043 l 1
EndSplineSet
EndChar

StartChar: guilsinglleft
Encoding: 367 8249 210
Width: 441
VWidth: 0
Flags: W
PickledData: "(dp1
S'com.typemytype.robofont.layerData'
p2
(dp3
s."
LayerCount: 2
Fore
SplineSet
10 664 m 1
 282 281 l 1
 330 281 l 1
 118 664 l 1
 330 1043 l 1
 282 1043 l 1
 10 664 l 1
EndSplineSet
EndChar

StartChar: guilsinglright
Encoding: 368 8250 211
Width: 441
VWidth: 0
Flags: W
PickledData: "(dp1
S'com.typemytype.robofont.layerData'
p2
(dp3
s."
LayerCount: 2
Fore
SplineSet
159 1043 m 1
 111 1043 l 1
 323 664 l 1
 111 281 l 1
 159 281 l 1
 431 664 l 1
 159 1043 l 1
EndSplineSet
EndChar

StartChar: h
Encoding: 72 104 212
Width: 1220
VWidth: 0
Flags: W
PickledData: "(dp1
S'com.typemytype.robofont.layerData'
p2
(dp3
s."
LayerCount: 2
Fore
SplineSet
278 1176 m 1
 278 60 l 1
 116 60 l 1
 116 0 l 1
 549 0 l 1
 549 60 l 1
 357 60 l 1
 357 664 l 1
 466 726 567 787 706 787 c 0
 868 787 900 704 900 601 c 2
 900 60 l 1
 742 60 l 1
 742 0 l 1
 1154 0 l 1
 1154 60 l 1
 979 60 l 1
 979 617 l 2
 979 726 915 854 714 854 c 0
 579 854 500 815 357 736 c 1
 357 1234 l 1
 105 1234 l 1
 105 1176 l 1
 278 1176 l 1
EndSplineSet
EndChar

StartChar: hbar
Encoding: 221 295 213
Width: 1204
VWidth: 0
Flags: W
PickledData: "(dp1
S'com.typemytype.robofont.layerData'
p2
(dp3
s."
LayerCount: 2
Fore
SplineSet
266 949 m 1
 266 60 l 1
 104 60 l 1
 104 0 l 1
 537 0 l 1
 537 60 l 1
 345 60 l 1
 345 664 l 1
 454 726 555 787 694 787 c 0
 856 787 888 704 888 601 c 2
 888 60 l 1
 730 60 l 1
 730 0 l 1
 1142 0 l 1
 1142 60 l 1
 967 60 l 1
 967 617 l 2
 967 726 903 854 702 854 c 0
 567 854 488 815 345 736 c 1
 345 949 l 1
 577 949 l 1
 577 1012 l 1
 345 1012 l 1
 345 1234 l 1
 93 1234 l 1
 93 1176 l 1
 266 1176 l 1
 266 1012 l 1
 92 1012 l 1
 92 949 l 1
 266 949 l 1
EndSplineSet
EndChar

StartChar: hungarumlaut
Encoding: 345 733 215
Width: 422
VWidth: 0
Flags: W
PickledData: "(dp1
S'com.typemytype.robofont.layerData'
p2
(dp3
s."
LayerCount: 2
Fore
SplineSet
260 985 m 1
 414 1234 l 1
 288 1234 l 1
 229 985 l 1
 260 985 l 1
50 985 m 1
 204 1234 l 1
 78 1234 l 1
 19 985 l 1
 50 985 l 1
EndSplineSet
EndChar

StartChar: hyphen
Encoding: 13 45 216
Width: 859
VWidth: 0
Flags: W
PickledData: "(dp1
S'com.typemytype.robofont.layerData'
p2
(dp3
s."
LayerCount: 2
Fore
SplineSet
695 475 m 1
 165 475 l 1
 165 413 l 1
 695 413 l 1
 695 475 l 1
EndSplineSet
EndChar

StartChar: i
Encoding: 73 105 217
Width: 573
VWidth: 0
Flags: W
PickledData: "(dp1
S'com.typemytype.robofont.layerData'
p2
(dp3
s."
LayerCount: 2
Fore
SplineSet
304 1205 m 0
 262 1205 242 1177 242 1148 c 0
 242 1121 262 1092 304 1092 c 0
 345 1092 367 1121 367 1148 c 0
 367 1177 346 1205 304 1205 c 0
268 776 m 1
 268 60 l 1
 118 60 l 1
 118 0 l 1
 501 0 l 1
 501 60 l 1
 347 60 l 1
 347 836 l 1
 118 836 l 1
 118 776 l 1
 268 776 l 1
EndSplineSet
EndChar

StartChar: infinity
Encoding: 394 8734 225
Width: 1303
VWidth: 0
Flags: W
PickledData: "(dp1
S'com.typemytype.robofont.layerData'
p2
(dp3
s."
LayerCount: 2
Fore
SplineSet
1164 548 m 0
 1164 738 1041 832 917 832 c 0
 803 832 715 763 651 644 c 1
 581 782 472 836 391 836 c 0
 235 836 139 703 139 553 c 0
 139 397 221 270 391 270 c 0
 485 270 580 325 654 462 c 1
 727 313 820 265 916 265 c 0
 1037 265 1164 365 1164 548 c 0
918 780 m 0
 1025 780 1096 679 1096 550 c 0
 1096 409 1023 316 919 316 c 0
 816 316 751 382 677 548 c 1
 749 702 821 780 918 780 c 0
385 320 m 0
 267 320 207 422 207 552 c 0
 207 661 262 785 383 785 c 0
 481 785 561 701 625 553 c 1
 550 390 474 320 385 320 c 0
EndSplineSet
EndChar

StartChar: integral
Encoding: 373 8747 226
Width: 763
VWidth: 0
Flags: W
PickledData: "(dp1
S'com.typemytype.robofont.layerData'
p2
(dp3
s."
LayerCount: 2
Fore
SplineSet
174 60 m 2
 151 -24 85 -24 31 -24 c 1
 15 -86 l 1
 107 -86 213 -86 253 60 c 2
 534 1080 l 2
 555 1156 596 1183 647 1183 c 0
 679 1183 713 1176 743 1165 c 1
 757 1219 l 1
 719 1236 677 1244 643 1244 c 0
 548 1244 484 1182 455 1078 c 2
 174 60 l 2
EndSplineSet
EndChar

StartChar: j
Encoding: 74 106 229
Width: 463
VWidth: 0
Flags: W
PickledData: "(dp1
S'com.typemytype.robofont.layerData'
p2
(dp3
s."
LayerCount: 2
Fore
SplineSet
244 -34 m 2
 244 -149 244 -211 107 -211 c 2
 29 -211 l 1
 29 -271 l 1
 109 -271 l 2
 323 -271 323 -143 323 -22 c 2
 323 836 l 1
 69 836 l 1
 69 779 l 1
 244 779 l 1
 244 -34 l 2
274 1205 m 0
 232 1205 212 1177 212 1148 c 0
 212 1121 232 1092 274 1092 c 0
 315 1092 336 1121 336 1148 c 0
 336 1177 316 1205 274 1205 c 0
EndSplineSet
EndChar

StartChar: k
Encoding: 75 107 231
Width: 1103
VWidth: 0
Flags: W
PickledData: "(dp1
S'com.typemytype.robofont.layerData'
p2
(dp3
s."
LayerCount: 2
Fore
SplineSet
282 1174 m 1
 282 60 l 1
 96 60 l 1
 96 0 l 1
 545 0 l 1
 545 60 l 1
 361 60 l 1
 361 431 l 1
 791 60 l 1
 668 60 l 1
 668 0 l 1
 1051 0 l 1
 1051 60 l 1
 900 60 l 1
 454 439 l 1
 857 776 l 1
 1016 776 l 1
 1016 836 l 1
 631 836 l 1
 631 776 l 1
 755 776 l 1
 361 454 l 1
 361 1234 l 1
 96 1234 l 1
 96 1174 l 1
 282 1174 l 1
EndSplineSet
EndChar

StartChar: kgreenlandic
Encoding: 238 312 233
Width: 1141
VWidth: 0
Flags: W
PickledData: "(dp1
S'com.typemytype.robofont.layerData'
p2
(dp3
s."
LayerCount: 2
Fore
SplineSet
288 778 m 1
 288 60 l 1
 102 60 l 1
 102 0 l 1
 551 0 l 1
 551 60 l 1
 367 60 l 1
 367 422 l 1
 797 60 l 1
 674 60 l 1
 674 0 l 1
 1057 0 l 1
 1057 60 l 1
 906 60 l 1
 460 439 l 1
 863 776 l 1
 1022 776 l 1
 1022 836 l 1
 637 836 l 1
 637 776 l 1
 761 776 l 1
 367 445 l 1
 367 838 l 1
 102 838 l 1
 102 778 l 1
 288 778 l 1
EndSplineSet
EndChar

StartChar: l
Encoding: 76 108 234
Width: 611
VWidth: 0
Flags: W
PickledData: "(dp1
S'com.typemytype.robofont.layerData'
p2
(dp3
s."
LayerCount: 2
Fore
SplineSet
294 1174 m 1
 294 60 l 1
 108 60 l 1
 108 0 l 1
 557 0 l 1
 557 60 l 1
 373 60 l 1
 373 1234 l 1
 108 1234 l 1
 108 1174 l 1
 294 1174 l 1
EndSplineSet
EndChar

StartChar: less
Encoding: 28 60 239
Width: 967
VWidth: 0
Flags: W
PickledData: "(dp1
S'com.typemytype.robofont.layerData'
p2
(dp3
s."
LayerCount: 2
Fore
SplineSet
830 -23 m 1
 830 68 l 1
 97 613 l 1
 830 1162 l 1
 830 1255 l 1
 3 628 l 1
 3 598 l 1
 830 -23 l 1
EndSplineSet
EndChar

StartChar: lessequal
Encoding: 395 8804 240
Width: 751
VWidth: 0
Flags: W
PickledData: "(dp1
S'com.typemytype.robofont.layerData'
p2
(dp3
s."
LayerCount: 2
Fore
SplineSet
695 194 m 1
 695 262 l 1
 113 571 l 1
 695 882 l 1
 695 952 l 1
 7 590 l 1
 7 553 l 1
 695 194 l 1
7 0 m 1
 695 0 l 1
 695 58 l 1
 7 58 l 1
 7 0 l 1
EndSplineSet
EndChar

StartChar: logicalnot
Encoding: 107 172 241
Width: 909
VWidth: 0
Flags: W
PickledData: "(dp1
S'com.typemytype.robofont.layerData'
p2
(dp3
s."
LayerCount: 2
Fore
SplineSet
7 697 m 1
 7 617 l 1
 668 617 l 1
 668 304 l 1
 745 304 l 1
 745 697 l 1
 7 697 l 1
EndSplineSet
EndChar

StartChar: lozenge
Encoding: 396 9674 242
Width: 964
VWidth: 0
Flags: W
PickledData: "(dp1
S'com.typemytype.robofont.layerData'
p2
(dp3
s."
LayerCount: 2
Fore
SplineSet
908 616 m 1
 508 1254 l 1
 457 1254 l 1
 56 614 l 1
 457 -23 l 1
 508 -23 l 1
 908 616 l 1
826 616 m 1
 485 47 l 1
 142 616 l 1
 485 1181 l 1
 826 616 l 1
EndSplineSet
EndChar

StartChar: lslash
Encoding: 245 322 243
Width: 680
VWidth: 0
Flags: W
PickledData: "(dp1
S'com.typemytype.robofont.layerData'
p2
(dp3
s."
LayerCount: 2
Fore
SplineSet
313 1174 m 1
 313 739 l 1
 141 637 l 1
 127 557 l 1
 313 664 l 1
 313 60 l 1
 127 60 l 1
 127 0 l 1
 576 0 l 1
 576 60 l 1
 392 60 l 1
 392 709 l 1
 563 807 l 1
 563 887 l 1
 392 786 l 1
 392 1234 l 1
 127 1234 l 1
 127 1174 l 1
 313 1174 l 1
EndSplineSet
EndChar

StartChar: m
Encoding: 77 109 244
Width: 1667
VWidth: 0
Flags: W
PickledData: "(dp1
S'com.typemytype.robofont.layerData'
p2
(dp3
s."
LayerCount: 2
Fore
SplineSet
278 779 m 1
 278 60 l 1
 116 60 l 1
 116 0 l 1
 513 0 l 1
 513 60 l 1
 357 60 l 1
 357 664 l 1
 456 726 542 787 667 787 c 0
 791 787 812 704 812 601 c 2
 812 60 l 1
 655 60 l 1
 655 0 l 1
 1067 0 l 1
 1067 60 l 1
 891 60 l 1
 891 60 891 648 889 664 c 1
 954 726 1076 787 1201 787 c 0
 1325 787 1346 704 1346 601 c 2
 1346 60 l 1
 1189 60 l 1
 1189 0 l 1
 1601 0 l 1
 1601 60 l 1
 1425 60 l 1
 1425 617 l 2
 1425 726 1371 854 1208 854 c 0
 1016 854 872 727 872 727 c 1
 843 797 782 854 674 854 c 0
 554 854 482 815 354 736 c 1
 345 836 l 1
 105 836 l 1
 105 779 l 1
 278 779 l 1
EndSplineSet
EndChar

StartChar: macron
Encoding: 110 175 245
Width: 395
VWidth: 0
Flags: W
PickledData: "(dp1
S'com.typemytype.robofont.layerData'
p2
(dp3
s."
LayerCount: 2
Fore
SplineSet
2 1058 m 1
 393 1058 l 1
 393 1123 l 1
 2 1123 l 1
 2 1058 l 1
EndSplineSet
EndChar

StartChar: minus
Encoding: 401 8722 246
Width: 1233
VWidth: 0
Flags: W
PickledData: "(dp1
S'com.typemytype.robofont.layerData'
p2
(dp3
s."
LayerCount: 2
Fore
SplineSet
125 959 m 1
 125 872 l 1
 1109 872 l 1
 1109 959 l 1
 125 959 l 1
EndSplineSet
EndChar

StartChar: multiply
Encoding: 147 215 247
Width: 637
VWidth: 0
Flags: W
PickledData: "(dp1
S'com.typemytype.robofont.layerData'
p2
(dp3
s."
LayerCount: 2
Fore
SplineSet
78 768 m 1
 281 565 l 1
 78 362 l 1
 122 318 l 1
 325 521 l 1
 529 317 l 1
 573 361 l 1
 371 565 l 1
 573 769 l 1
 529 814 l 1
 325 610 l 1
 122 812 l 1
 78 768 l 1
EndSplineSet
EndChar

StartChar: n
Encoding: 78 110 248
Width: 1184
VWidth: 0
Flags: W
PickledData: "(dp1
S'com.typemytype.robofont.layerData'
p2
(dp3
s."
LayerCount: 2
Fore
SplineSet
286 779 m 1
 286 60 l 1
 105 60 l 1
 105 0 l 1
 538 0 l 1
 538 60 l 1
 366 60 l 1
 366 668 l 1
 474 743 568 787 703 787 c 0
 855 787 884 704 884 601 c 2
 884 60 l 1
 717 60 l 1
 717 0 l 1
 1118 0 l 1
 1118 60 l 1
 963 60 l 1
 963 617 l 2
 963 726 902 854 710 854 c 0
 580 854 487 820 362 736 c 1
 354 836 l 1
 106 836 l 1
 106 779 l 1
 286 779 l 1
EndSplineSet
EndChar

StartChar: nine
Encoding: 25 57 253
Width: 916
VWidth: 0
Flags: W
PickledData: "(dp1
S'com.typemytype.robofont.layerData'
p2
(dp3
s."
LayerCount: 2
Fore
SplineSet
154 878 m 0
 154 1031 259 1183 471 1183 c 0
 681 1183 782 1038 782 888 c 0
 782 679 623 575 466 575 c 0
 310 575 154 677 154 878 c 0
367 -128 m 1
 724 535 l 1
 724 535 859 749 859 892 c 0
 859 1104 665 1255 471 1255 c 0
 211 1255 73 1064 73 862 c 0
 73 662 249 506 455 506 c 0
 519 506 586 522 651 554 c 1
 299 -82 l 1
 367 -128 l 1
EndSplineSet
EndChar

StartChar: notequal
Encoding: 397 8800 254
Width: 734
VWidth: 0
Flags: W
PickledData: "(dp1
S'com.typemytype.robofont.layerData'
p2
(dp3
s."
LayerCount: 2
Fore
SplineSet
16 677 m 1
 16 613 l 1
 375 613 l 1
 303 337 l 1
 16 337 l 1
 16 276 l 1
 285 276 l 1
 235 84 l 1
 295 84 l 1
 342 276 l 1
 719 276 l 1
 719 337 l 1
 359 337 l 1
 432 613 l 1
 719 613 l 1
 719 677 l 1
 444 677 l 1
 497 868 l 1
 439 868 l 1
 390 677 l 1
 16 677 l 1
EndSplineSet
EndChar

StartChar: numbersign
Encoding: 3 35 256
Width: 1063
VWidth: 0
Flags: W
PickledData: "(dp1
S'com.typemytype.robofont.layerData'
p2
(dp3
s."
LayerCount: 2
Fore
SplineSet
112 880 m 1
 107 821 l 1
 282 821 l 1
 252 457 l 1
 76 457 l 1
 71 398 l 1
 247 398 l 1
 214 0 l 1
 293 0 l 1
 326 398 l 1
 691 398 l 1
 658 0 l 1
 737 0 l 1
 770 398 l 1
 957 398 l 1
 962 457 l 1
 775 457 l 1
 805 821 l 1
 993 821 l 1
 998 880 l 1
 810 880 l 1
 839 1234 l 1
 760 1234 l 1
 731 880 l 1
 366 880 l 1
 395 1234 l 1
 316 1234 l 1
 287 880 l 1
 112 880 l 1
361 821 m 1
 726 821 l 1
 696 457 l 1
 331 457 l 1
 361 821 l 1
EndSplineSet
EndChar

StartChar: o
Encoding: 79 111 257
Width: 1098
VWidth: 0
Flags: W
PickledData: "(dp1
S'com.typemytype.robofont.layerData'
p2
(dp3
s."
LayerCount: 2
Fore
SplineSet
916 424 m 0
 916 178 733 53 547 53 c 0
 362 53 184 178 184 424 c 0
 184 661 362 787 547 787 c 0
 733 787 916 661 916 424 c 0
996 424 m 0
 996 709 772 854 547 854 c 0
 320 854 102 706 102 424 c 0
 102 136 322 -14 547 -14 c 0
 773 -14 996 134 996 424 c 0
EndSplineSet
EndChar

StartChar: oe
Encoding: 259 339 262
Width: 1887
VWidth: 0
Flags: W
PickledData: "(dp1
S'com.typemytype.robofont.layerData'
p2
(dp3
s."
LayerCount: 2
Fore
SplineSet
1017 400 m 1
 1756 400 l 1
 1756 648 1611 854 1370 854 c 0
 1167 854 1036 748 976 610 c 1
 907 772 737 854 579 854 c 0
 352 854 137 706 137 424 c 0
 137 136 353 -14 579 -14 c 0
 737 -14 905 68 975 232 c 1
 1043 83 1191 -14 1363 -14 c 0
 1485 -14 1616 35 1733 149 c 1
 1700 204 l 1
 1611 106 1487 52 1366 52 c 0
 1191 52 1033 169 1017 400 c 1
935 424 m 0
 935 178 753 53 579 53 c 0
 394 53 219 178 219 424 c 0
 219 661 394 787 579 787 c 0
 753 787 935 661 935 424 c 0
1019 466 m 1
 1028 623 1145 787 1370 787 c 0
 1557 787 1664 632 1678 466 c 1
 1019 466 l 1
EndSplineSet
EndChar

StartChar: ogonek
Encoding: 343 731 263
Width: 446
VWidth: 0
Flags: W
PickledData: "(dp1
S'com.typemytype.robofont.layerData'
p2
(dp3
s."
LayerCount: 2
Fore
SplineSet
224 0 m 1
 149 -56 103 -149 103 -227 c 0
 103 -320 178 -364 262 -364 c 0
 312 -364 366 -348 409 -319 c 1
 409 -256 l 1
 377 -269 340 -278 304 -278 c 0
 241 -278 186 -251 186 -174 c 0
 186 -121 216 -58 277 0 c 1
 224 0 l 1
EndSplineSet
EndChar

StartChar: one
Encoding: 17 49 267
Width: 509
VWidth: 0
Flags: W
PickledData: "(dp1
S'com.typemytype.robofont.layerData'
p2
(dp3
s."
LayerCount: 2
Fore
SplineSet
311 62 m 1
 311 1234 l 1
 57 1186 l 1
 74 1118 l 1
 230 1147 l 1
 230 62 l 1
 53 62 l 1
 53 0 l 1
 480 0 l 1
 480 62 l 1
 311 62 l 1
EndSplineSet
EndChar

StartChar: onehalf
Encoding: 121 189 268
Width: 1339
VWidth: 0
Flags: W
PickledData: "(dp1
S'com.typemytype.robofont.layerData'
p2
(dp3
s."
LayerCount: 2
Fore
SplineSet
398 426 m 1
 281 426 l 1
 281 1234 l 1
 86 1197 l 1
 103 1132 l 1
 207 1152 l 1
 207 426 l 1
 86 426 l 1
 86 365 l 1
 398 365 l 1
 398 426 l 1
1195 640 m 0
 1195 537 1059 366 786 125 c 0
 758 100 738 82 726 70 c 1
 726 0 l 1
 1232 0 l 1
 1232 72 l 1
 834 72 l 1
 854 92 887 123 932 164 c 0
 1159 370 1273 526 1273 631 c 0
 1273 790 1169 881 1012 881 c 0
 856 881 744 772 744 657 c 0
 744 599 747 558 752 535 c 1
 830 535 l 1
 823 569 819 599 819 627 c 0
 819 749 901 812 988 812 c 0
 1126 812 1195 755 1195 640 c 0
742 1255 m 1
 370 -23 l 1
 445 -23 l 1
 813 1255 l 1
 742 1255 l 1
EndSplineSet
EndChar

StartChar: onequarter
Encoding: 120 188 269
Width: 1348
VWidth: 0
Flags: W
PickledData: "(dp1
S'com.typemytype.robofont.layerData'
p2
(dp3
s."
LayerCount: 2
Fore
SplineSet
398 426 m 1
 281 426 l 1
 281 1234 l 1
 86 1197 l 1
 103 1132 l 1
 207 1152 l 1
 207 426 l 1
 86 426 l 1
 86 365 l 1
 398 365 l 1
 398 426 l 1
717 316 m 1
 726 260 l 1
 1074 260 l 1
 1074 61 l 1
 962 61 l 1
 962 0 l 1
 1259 0 l 1
 1259 61 l 1
 1147 61 l 1
 1147 260 l 1
 1325 260 l 1
 1325 323 l 1
 1147 323 l 1
 1147 866 l 1
 1055 866 l 1
 717 316 l 1
1074 323 m 1
 807 323 l 1
 896 476 983 616 1074 768 c 1
 1074 323 l 1
781 1255 m 1
 409 -23 l 1
 484 -23 l 1
 852 1255 l 1
 781 1255 l 1
EndSplineSet
EndChar

StartChar: ordfeminine
Encoding: 105 170 270
Width: 791
VWidth: 0
Flags: W
PickledData: "(dp1
S'com.typemytype.robofont.layerData'
p2
(dp3
s."
LayerCount: 2
Fore
SplineSet
331 641 m 0
 409 641 474 666 536 708 c 1
 545 650 l 1
 713 650 l 1
 713 710 l 1
 607 710 l 1
 607 1067 l 2
 607 1145 567 1255 380 1255 c 0
 285 1255 206 1235 150 1181 c 1
 186 1123 l 1
 230 1169 295 1192 379 1192 c 0
 475 1192 534 1158 534 1055 c 2
 534 978 l 1
 482 988 434 996 384 996 c 0
 258 996 126 979 126 818 c 0
 126 725 193 641 331 641 c 0
534 772 m 1
 477 721 413 706 338 706 c 0
 234 706 200 766 200 817 c 0
 200 929 299 932 378 932 c 2
 390 932 l 2
 446 932 512 922 534 917 c 1
 534 772 l 1
EndSplineSet
EndChar

StartChar: ordmasculine
Encoding: 118 186 271
Width: 870
VWidth: 0
Flags: W
PickledData: "(dp1
S'com.typemytype.robofont.layerData'
p2
(dp3
s."
LayerCount: 2
Fore
SplineSet
680 950 m 0
 680 788 556 706 434 706 c 0
 311 706 190 788 190 950 c 0
 190 1109 311 1192 434 1192 c 0
 556 1192 680 1109 680 950 c 0
754 950 m 0
 754 1153 593 1255 434 1255 c 0
 273 1255 116 1151 116 950 c 0
 116 746 274 641 434 641 c 0
 593 641 754 746 754 950 c 0
EndSplineSet
EndChar

StartChar: oslash
Encoding: 180 248 272
Width: 1039
VWidth: 0
Flags: W
PickledData: "(dp1
S'com.typemytype.robofont.layerData'
p2
(dp3
s."
LayerCount: 2
Fore
SplineSet
681 752 m 1
 344 92 l 1
 232 146 148 257 148 424 c 0
 148 661 330 787 515 787 c 0
 572 787 629 775 681 752 c 1
723 730 m 1
 819 671 888 568 888 424 c 0
 888 178 701 53 515 53 c 0
 471 53 428 60 387 74 c 1
 723 730 l 1
968 424 m 0
 968 603 878 727 756 794 c 1
 869 1015 l 1
 828 1039 l 1
 713 814 l 1
 651 840 583 854 515 854 c 0
 288 854 66 706 66 424 c 0
 66 226 172 93 312 29 c 1
 209 -172 l 1
 249 -196 l 1
 355 12 l 1
 406 -5 461 -14 515 -14 c 0
 741 -14 968 134 968 424 c 0
EndSplineSet
EndChar

StartChar: p
Encoding: 80 112 274
Width: 1204
VWidth: 0
Flags: W
PickledData: "(dp1
S'com.typemytype.robofont.layerData'
p2
(dp3
s."
LayerCount: 2
Fore
SplineSet
466 -322 m 1
 466 -262 l 1
 319 -262 l 1
 319 129 l 1
 394 40 513 -14 663 -14 c 0
 949 -14 1102 196 1102 406 c 0
 1102 600 985 854 666 854 c 0
 501 854 366 767 319 715 c 1
 306 840 l 1
 97 840 l 1
 97 780 l 1
 240 780 l 1
 240 -262 l 1
 91 -262 l 1
 91 -322 l 1
 466 -322 l 1
1023 414 m 0
 1023 216 887 53 667 53 c 0
 540 53 453 68 319 205 c 1
 319 647 l 1
 464 758 547 787 669 787 c 0
 909 787 1023 595 1023 414 c 0
EndSplineSet
EndChar

StartChar: paragraph
Encoding: 115 182 275
Width: 1050
VWidth: 0
Flags: W
PickledData: "(dp1
S'com.typemytype.robofont.layerData'
p2
(dp3
s."
LayerCount: 2
Fore
SplineSet
715 -23 m 1
 796 -23 l 1
 796 1171 l 1
 962 1171 l 1
 962 1234 l 1
 402 1234 l 2
 178 1234 63 1094 63 955 c 0
 63 810 178 661 402 661 c 2
 438 661 l 1
 438 -23 l 1
 519 -23 l 1
 519 1171 l 1
 715 1171 l 1
 715 -23 l 1
EndSplineSet
EndChar

StartChar: parenleft
Encoding: 8 40 276
Width: 541
VWidth: 0
Flags: W
PickledData: "(dp1
S'com.typemytype.robofont.layerData'
p2
(dp3
s."
LayerCount: 2
Fore
SplineSet
61 616 m 0
 61 320 194 30 463 -37 c 1
 463 31 l 1
 232 114 146 367 146 616 c 0
 146 864 232 1117 463 1200 c 1
 463 1268 l 1
 194 1201 61 911 61 616 c 0
EndSplineSet
EndChar

StartChar: parenright
Encoding: 9 41 277
Width: 542
VWidth: 0
Flags: W
PickledData: "(dp1
S'com.typemytype.robofont.layerData'
p2
(dp3
s."
LayerCount: 2
Fore
SplineSet
481 616 m 0
 481 911 347 1201 79 1268 c 1
 79 1200 l 1
 309 1117 395 864 395 616 c 0
 395 367 309 114 79 31 c 1
 79 -37 l 1
 347 30 481 320 481 616 c 0
EndSplineSet
EndChar

StartChar: partialdiff
Encoding: 65547 8706 278
Width: 916
VWidth: 0
Flags: W
PickledData: "(dp1
S'com.typemytype.robofont.layerData'
p2
(dp3
s."
LayerCount: 2
Fore
SplineSet
155 354 m 0
 155 556 311 658 467 658 c 0
 624 658 782 553 782 344 c 0
 782 194 682 49 472 49 c 0
 259 49 155 202 155 354 c 0
300 1314 m 1
 652 678 l 1
 587 710 520 726 456 726 c 0
 250 726 73 570 73 371 c 0
 73 168 211 -23 472 -23 c 0
 666 -23 859 128 859 341 c 0
 859 484 725 697 725 697 c 1
 367 1361 l 1
 300 1314 l 1
EndSplineSet
EndChar

StartChar: percent
Encoding: 5 37 279
Width: 1690
VWidth: 0
Flags: W
PickledData: "(dp1
S'com.typemytype.robofont.layerData'
p2
(dp3
s."
LayerCount: 2
Fore
SplineSet
284 0 m 1
 329 -47 l 1
 1430 1270 l 1
 1389 1310 l 1
 284 0 l 1
663 950 m 0
 663 788 539 706 417 706 c 0
 294 706 173 788 173 950 c 0
 173 1109 294 1192 417 1192 c 0
 539 1192 663 1109 663 950 c 0
737 950 m 0
 737 1153 576 1255 417 1255 c 0
 256 1255 99 1151 99 950 c 0
 99 746 257 641 417 641 c 0
 576 641 737 746 737 950 c 0
1504 284 m 0
 1504 122 1380 40 1258 40 c 0
 1135 40 1014 122 1014 284 c 0
 1014 443 1135 526 1258 526 c 0
 1380 526 1504 443 1504 284 c 0
1578 284 m 0
 1578 487 1417 589 1258 589 c 0
 1097 589 940 485 940 284 c 0
 940 80 1098 -25 1258 -25 c 0
 1417 -25 1578 80 1578 284 c 0
EndSplineSet
EndChar

StartChar: period
Encoding: 14 46 280
Width: 441
VWidth: 0
Flags: W
PickledData: "(dp1
S'com.typemytype.robofont.layerData'
p2
(dp3
s."
LayerCount: 2
Fore
SplineSet
165 120 m 1
 165 0 l 1
 281 0 l 1
 281 120 l 1
 165 120 l 1
EndSplineSet
EndChar

StartChar: periodcentered
Encoding: 116 183 281
Width: 442
VWidth: 0
Flags: W
PickledData: "(dp1
S'com.typemytype.robofont.layerData'
p2
(dp3
s."
LayerCount: 2
Fore
SplineSet
165 815 m 1
 165 695 l 1
 282 695 l 1
 282 815 l 1
 165 815 l 1
EndSplineSet
EndChar

StartChar: pi
Encoding: 65548 960 282
Width: 1065
VWidth: 0
Flags: W
PickledData: "(dp1
S'com.typemytype.robofont.layerData'
p2
(dp3
s."
LayerCount: 2
Fore
SplineSet
931 836 m 1
 250 836 l 2
 151 836 136 796 136 709 c 1
 173 709 l 1
 177 764 197 806 249 806 c 2
 298 806 l 1
 255 330 l 2
 238 144 253 53 130 53 c 1
 130 -4 l 1
 270 -4 324 78 340 308 c 2
 375 806 l 1
 737 806 l 1
 736 179 l 2
 736 70 771 -13 855 -13 c 0
 882 -13 913 -6 951 13 c 1
 951 58 l 1
 929 52 911 49 895 49 c 0
 845 49 823 82 823 168 c 2
 823 806 l 1
 931 806 l 1
 931 836 l 1
EndSplineSet
EndChar

StartChar: plus
Encoding: 11 43 283
Width: 792
VWidth: 0
Flags: W
PickledData: "(dp1
S'com.typemytype.robofont.layerData'
p2
(dp3
s."
LayerCount: 2
Fore
SplineSet
428 982 m 1
 366 982 l 1
 366 598 l 1
 9 598 l 1
 9 534 l 1
 366 534 l 1
 366 138 l 1
 428 138 l 1
 428 534 l 1
 783 534 l 1
 783 598 l 1
 428 598 l 1
 428 982 l 1
EndSplineSet
EndChar

StartChar: plusminus
Encoding: 112 177 284
Width: 798
VWidth: 0
Flags: W
PickledData: "(dp1
S'com.typemytype.robofont.layerData'
p2
(dp3
s."
LayerCount: 2
Fore
SplineSet
785 0 m 1
 785 62 l 1
 11 62 l 1
 11 0 l 1
 785 0 l 1
431 982 m 1
 369 982 l 1
 369 598 l 1
 13 598 l 1
 13 534 l 1
 369 534 l 1
 369 138 l 1
 431 138 l 1
 431 534 l 1
 787 534 l 1
 787 598 l 1
 431 598 l 1
 431 982 l 1
EndSplineSet
EndChar

StartChar: q
Encoding: 81 113 286
Width: 1157
VWidth: 0
Flags: W
PickledData: "(dp1
S'com.typemytype.robofont.layerData'
p2
(dp3
s."
LayerCount: 2
Fore
SplineSet
1075 -322 m 1
 1075 -262 l 1
 927 -262 l 1
 927 776 l 1
 1060 776 l 1
 1060 836 l 1
 861 836 l 1
 847 715 l 1
 801 767 683 854 517 854 c 0
 198 854 102 600 102 406 c 0
 102 196 234 -14 521 -14 c 0
 671 -14 772 36 847 97 c 1
 847 -262 l 1
 700 -262 l 1
 700 -322 l 1
 1075 -322 l 1
182 414 m 0
 182 595 275 787 515 787 c 0
 636 787 702 758 847 647 c 1
 847 163 l 1
 713 65 643 53 516 53 c 0
 296 53 182 216 182 414 c 0
EndSplineSet
EndChar

StartChar: question
Encoding: 31 63 287
Width: 666
VWidth: 0
Flags: W
PickledData: "(dp1
S'com.typemytype.robofont.layerData'
p2
(dp3
s."
LayerCount: 2
Fore
SplineSet
77 1004 m 1
 113 1090 194 1151 321 1151 c 0
 485 1151 561 1039 561 923 c 0
 561 664 276 730 276 289 c 1
 309 289 l 1
 333 695 638 612 638 923 c 0
 638 1106 490 1223 318 1223 c 0
 190 1223 70 1168 16 1040 c 1
 77 1004 l 1
261 56 m 1
 261 -23 l 1
 345 -23 l 1
 345 56 l 1
 261 56 l 1
EndSplineSet
EndChar

StartChar: questiondown
Encoding: 123 191 288
Width: 665
VWidth: 0
Flags: W
PickledData: "(dp1
S'com.typemytype.robofont.layerData'
p2
(dp3
s."
LayerCount: 2
Fore
SplineSet
589 196 m 1
 553 110 472 49 345 49 c 0
 181 49 105 161 105 277 c 0
 105 536 390 470 390 911 c 1
 357 911 l 1
 333 505 28 588 28 277 c 0
 28 94 176 -23 348 -23 c 0
 476 -23 596 32 650 160 c 1
 589 196 l 1
321 1144 m 1
 405 1144 l 1
 405 1223 l 1
 321 1223 l 1
 321 1144 l 1
EndSplineSet
EndChar

StartChar: quotedbl
Encoding: 2 34 289
Width: 557
VWidth: 0
Flags: W
PickledData: "(dp1
S'com.typemytype.robofont.layerData'
p2
(dp3
s."
LayerCount: 2
Fore
SplineSet
424 1234 m 1
 333 1234 l 1
 359 854 l 1
 391 854 l 1
 424 1234 l 1
231 1234 m 1
 139 1234 l 1
 166 854 l 1
 198 854 l 1
 231 1234 l 1
EndSplineSet
EndChar

StartChar: quotedblbase
Encoding: 364 8222 290
Width: 690
VWidth: 0
Flags: W
PickledData: "(dp1
S'com.typemytype.robofont.layerData'
p2
(dp3
s."
LayerCount: 2
Fore
SplineSet
168 116 m 1
 168 -4 l 1
 230 -4 l 1
 230 -88 225 -114 159 -136 c 1
 159 -180 l 1
 260 -180 294 -104 294 -6 c 2
 294 116 l 1
 168 116 l 1
419 116 m 1
 419 -4 l 1
 480 -4 l 1
 480 -88 476 -114 410 -136 c 1
 410 -180 l 1
 510 -180 545 -104 545 -6 c 2
 545 116 l 1
 419 116 l 1
EndSplineSet
EndChar

StartChar: quotedblleft
Encoding: 362 8220 291
Width: 664
VWidth: 0
Flags: W
PickledData: "(dp1
S'com.typemytype.robofont.layerData'
p2
(dp3
s."
LayerCount: 2
Fore
SplineSet
499 959 m 1
 499 1079 l 1
 438 1079 l 1
 438 1163 443 1189 509 1211 c 1
 509 1255 l 1
 408 1255 373 1180 373 1081 c 2
 373 959 l 1
 499 959 l 1
273 959 m 1
 273 1079 l 1
 212 1079 l 1
 212 1163 217 1189 283 1211 c 1
 283 1255 l 1
 182 1255 147 1180 147 1081 c 2
 147 959 l 1
 273 959 l 1
EndSplineSet
EndChar

StartChar: quotedblright
Encoding: 363 8221 292
Width: 665
VWidth: 0
Flags: W
PickledData: "(dp1
S'com.typemytype.robofont.layerData'
p2
(dp3
s."
LayerCount: 2
Fore
SplineSet
169 1234 m 1
 169 1114 l 1
 230 1114 l 1
 230 1030 225 1003 159 982 c 1
 159 937 l 1
 260 937 295 1013 295 1111 c 2
 295 1234 l 1
 169 1234 l 1
395 1234 m 1
 395 1114 l 1
 456 1114 l 1
 456 1030 451 1003 385 982 c 1
 385 937 l 1
 486 937 521 1013 521 1111 c 2
 521 1234 l 1
 395 1234 l 1
EndSplineSet
EndChar

StartChar: quoteleft
Encoding: 359 8216 293
Width: 394
VWidth: 0
Flags: W
PickledData: "(dp1
S'com.typemytype.robofont.layerData'
p2
(dp3
s."
LayerCount: 2
Fore
SplineSet
245 959 m 1
 245 1079 l 1
 184 1079 l 1
 184 1163 189 1189 255 1211 c 1
 255 1255 l 1
 154 1255 119 1180 119 1081 c 2
 119 959 l 1
 245 959 l 1
EndSplineSet
EndChar

StartChar: quoteright
Encoding: 360 8217 294
Width: 396
VWidth: 0
Flags: W
PickledData: "(dp1
S'com.typemytype.robofont.layerData'
p2
(dp3
s."
LayerCount: 2
Fore
SplineSet
158 1234 m 1
 158 1114 l 1
 219 1114 l 1
 219 1030 214 1003 148 982 c 1
 148 937 l 1
 249 937 284 1013 284 1111 c 2
 284 1234 l 1
 158 1234 l 1
EndSplineSet
EndChar

StartChar: quotesinglbase
Encoding: 361 8218 295
Width: 399
VWidth: 0
Flags: W
PickledData: "(dp1
S'com.typemytype.robofont.layerData'
p2
(dp3
s."
LayerCount: 2
Fore
SplineSet
161 116 m 1
 161 -4 l 1
 223 -4 l 1
 223 -88 218 -114 152 -136 c 1
 152 -180 l 1
 253 -180 287 -104 287 -6 c 2
 287 116 l 1
 161 116 l 1
EndSplineSet
EndChar

StartChar: quotesingle
Encoding: 7 39 296
Width: 267
VWidth: 0
Flags: W
PickledData: "(dp1
S'com.typemytype.robofont.layerData'
p2
(dp3
s."
LayerCount: 2
Fore
SplineSet
189 1234 m 1
 97 1234 l 1
 124 854 l 1
 156 854 l 1
 189 1234 l 1
EndSplineSet
EndChar

StartChar: r
Encoding: 82 114 297
Width: 822
VWidth: 0
Flags: W
PickledData: "(dp1
S'com.typemytype.robofont.layerData'
p2
(dp3
s."
LayerCount: 2
Fore
SplineSet
371 60 m 1
 371 468 l 2
 371 670 464 787 598 787 c 0
 644 787 697 773 752 746 c 1
 752 817 l 1
 692 844 648 854 599 854 c 0
 486 854 404 774 371 652 c 1
 359 836 l 1
 109 836 l 1
 109 779 l 1
 292 779 l 1
 292 60 l 1
 108 60 l 1
 108 0 l 1
 554 0 l 1
 554 60 l 1
 371 60 l 1
EndSplineSet
EndChar

StartChar: registered
Encoding: 109 174 302
Width: 1516
VWidth: 0
Flags: W
PickledData: "(dp1
S'com.typemytype.robofont.layerData'
p2
(dp3
s."
LayerCount: 2
Fore
SplineSet
441 258 m 1
 692 258 l 1
 692 316 l 1
 596 316 l 1
 596 590 l 1
 754 590 l 1
 951 258 l 1
 1102 258 l 1
 1102 316 l 1
 1000 316 l 1
 832 590 l 1
 963 598 1028 695 1028 790 c 0
 1028 888 956 988 812 988 c 2
 434 988 l 1
 434 931 l 1
 527 931 l 1
 527 316 l 1
 441 316 l 1
 441 258 l 1
596 931 m 1
 812 931 l 2
 911 931 963 859 963 787 c 0
 963 718 910 648 812 648 c 2
 596 648 l 1
 596 931 l 1
758 1199 m 0
 1133 1199 1329 904 1329 617 c 0
 1329 328 1135 34 758 34 c 0
 374 34 188 318 188 617 c 0
 188 904 379 1199 758 1199 c 0
758 -23 m 0
 1187 -23 1400 296 1400 616 c 0
 1400 937 1185 1258 758 1258 c 0
 333 1258 116 937 116 616 c 0
 116 296 331 -23 758 -23 c 0
EndSplineSet
EndChar

StartChar: ring
Encoding: 342 730 303
Width: 388
VWidth: 0
Flags: W
PickledData: "(dp1
S'com.typemytype.robofont.layerData'
p2
(dp3
s."
LayerCount: 2
Fore
SplineSet
71 1165 m 0
 71 1228 113 1291 195 1291 c 0
 274 1291 316 1228 316 1165 c 0
 316 1103 274 1039 195 1039 c 0
 113 1039 71 1103 71 1165 c 0
23 1165 m 0
 23 1080 81 995 194 995 c 0
 306 995 364 1080 364 1165 c 0
 364 1250 306 1336 194 1336 c 0
 81 1336 23 1250 23 1165 c 0
EndSplineSet
EndChar

StartChar: s
Encoding: 83 115 304
Width: 926
VWidth: 0
Flags: W
PickledData: "(dp1
S'com.typemytype.robofont.layerData'
p2
(dp3
s."
LayerCount: 2
Fore
SplineSet
485 -15 m 1
 650 -15 821 61 821 222 c 0
 821 406 672 442 523 464 c 0
 374 486 225 494 225 623 c 0
 225 737 340 786 459 786 c 0
 551 786 647 754 694 695 c 1
 694 572 l 1
 764 572 l 1
 764 836 l 1
 694 836 l 1
 694 776 l 1
 632 832 536 853 440 853 c 0
 290 853 143 784 143 620 c 0
 143 455 301 419 496 397 c 0
 657 379 741 341 741 221 c 0
 741 109 620 53 490 53 c 0
 373 53 244 91 207 168 c 1
 207 268 l 1
 139 268 l 1
 139 0 l 1
 207 0 l 1
 207 73 l 1
 265 14 374 -14 485 -14 c 1
 485 -15 l 1
EndSplineSet
EndChar

StartChar: section
Encoding: 102 167 310
Width: 955
VWidth: 0
Flags: W
PickledData: "(dp1
S'com.typemytype.robofont.layerData'
p2
(dp3
s."
LayerCount: 2
Fore
SplineSet
828 571 m 1
 828 905 232 704 232 947 c 0
 232 1036 347 1074 466 1074 c 0
 558 1074 654 1043 701 983 c 1
 701 896 l 1
 771 896 l 1
 771 1124 l 1
 701 1124 l 1
 701 1064 l 1
 639 1120 543 1141 447 1141 c 0
 297 1141 150 1082 150 944 c 0
 150 860 190 815 255 782 c 1
 192 749 150 690 150 612 c 0
 150 306 743 490 743 248 c 0
 743 176 660 104 497 104 c 0
 380 104 251 143 214 220 c 1
 214 283 l 1
 146 283 l 1
 146 52 l 1
 214 52 l 1
 214 125 l 1
 272 66 381 37 492 37 c 0
 729 37 820 144 820 248 c 0
 820 314 784 372 724 407 c 1
 786 442 827 500 828 571 c 1
748 569 m 0
 748 510 719 461 668 439 c 1
 484 481 232 463 232 614 c 0
 232 689 270 739 318 758 c 1
 464 714 748 737 748 569 c 0
EndSplineSet
EndChar

StartChar: semicolon
Encoding: 27 59 311
Width: 328
VWidth: 0
Flags: W
PickledData: "(dp1
S'com.typemytype.robofont.layerData'
p2
(dp3
s."
LayerCount: 2
Fore
SplineSet
94 316 m 1
 94 196 l 1
 155 196 l 1
 155 112 150 85 84 64 c 1
 84 19 l 1
 185 19 220 95 220 193 c 2
 220 316 l 1
 94 316 l 1
98 815 m 1
 98 695 l 1
 215 695 l 1
 215 815 l 1
 98 815 l 1
EndSplineSet
EndChar

StartChar: seven
Encoding: 23 55 312
Width: 939
VWidth: 0
Flags: W
PickledData: "(dp1
S'com.typemytype.robofont.layerData'
p2
(dp3
s."
LayerCount: 2
Fore
SplineSet
798 1164 m 1
 559 571 384 0 384 0 c 1
 466 0 l 1
 466 0 681 696 886 1158 c 1
 886 1234 l 1
 94 1234 l 1
 94 916 l 1
 171 916 l 1
 171 1164 l 1
 798 1164 l 1
EndSplineSet
EndChar

StartChar: six
Encoding: 22 54 313
Width: 916
VWidth: 0
Flags: W
PickledData: "(dp1
S'com.typemytype.robofont.layerData'
p2
(dp3
s."
LayerCount: 2
Fore
SplineSet
445 -23 m 0
 705 -23 843 168 843 371 c 0
 843 570 667 726 460 726 c 0
 397 726 330 710 265 678 c 1
 616 1314 l 1
 549 1361 l 1
 192 697 l 1
 192 697 57 484 57 341 c 0
 57 128 250 -23 445 -23 c 0
445 49 m 0
 235 49 134 194 134 344 c 0
 134 553 292 658 450 658 c 0
 606 658 762 556 762 354 c 0
 762 202 657 49 445 49 c 0
EndSplineSet
EndChar

StartChar: slash
Encoding: 15 47 314
Width: 467
VWidth: 0
Flags: W
PickledData: "(dp1
S'com.typemytype.robofont.layerData'
p2
(dp3
s."
LayerCount: 2
Fore
SplineSet
12 -23 m 1
 87 -23 l 1
 455 1255 l 1
 384 1255 l 1
 12 -23 l 1
EndSplineSet
EndChar

StartChar: sterling
Encoding: 98 163 316
Width: 1159
VWidth: 0
Flags: W
PickledData: "(dp1
S'com.typemytype.robofont.layerData'
p2
(dp3
s."
LayerCount: 2
Fore
SplineSet
510 204 m 1
 465 265 380 300 296 300 c 0
 188 300 78 245 78 120 c 0
 78 31 142 -47 291 -47 c 0
 338 -47 496 -32 555 107 c 1
 626 12 717 -29 814 -29 c 0
 970 -29 1047 78 1047 218 c 0
 1047 233 1046 247 1044 262 c 1
 994 262 l 1
 994 148 952 44 809 44 c 0
 719 44 633 78 572 156 c 1
 590 212 598 269 598 324 c 0
 598 402 581 480 552 562 c 1
 911 562 l 1
 911 611 l 1
 536 611 l 1
 472 734 407 828 407 954 c 0
 407 1109 502 1189 678 1189 c 0
 849 1189 912 1097 912 968 c 1
 988 968 l 1
 988 1146 878 1255 671 1255 c 0
 453 1255 320 1138 320 937 c 0
 320 828 382 714 436 611 c 1
 213 611 l 1
 213 562 l 1
 461 562 l 1
 496 480 520 392 520 301 c 0
 520 269 516 236 510 204 c 1
148 120 m 0
 148 209 222 244 300 244 c 0
 372 244 449 211 495 154 c 1
 472 55 375 7 287 7 c 0
 216 7 148 41 148 120 c 0
EndSplineSet
EndChar

StartChar: t
Encoding: 84 116 318
Width: 600
VWidth: 0
Flags: W
PickledData: "(dp1
S'com.typemytype.robofont.layerData'
p2
(dp3
s."
LayerCount: 2
Fore
SplineSet
208 781 m 1
 208 250 l 2
 208 128 208 0 421 0 c 2
 502 0 l 1
 502 60 l 1
 424 60 l 2
 287 60 287 122 287 238 c 2
 287 781 l 1
 486 781 l 1
 486 836 l 1
 287 836 l 1
 287 1166 l 1
 208 1133 l 1
 208 836 l 1
 83 836 l 1
 83 781 l 1
 208 781 l 1
EndSplineSet
EndChar

StartChar: tcommaaccent
Encoding: 65551 -1 320
Width: 517
VWidth: 0
Flags: W
PickledData: "(dp1
S'com.typemytype.robofont.layerData'
p2
(dp3
s."
LayerCount: 2
Fore
SplineSet
141 781 m 1
 141 250 l 2
 141 128 141 0 354 0 c 2
 435 0 l 1
 435 60 l 1
 357 60 l 2
 220 60 220 122 220 238 c 2
 220 781 l 1
 419 781 l 1
 419 836 l 1
 220 836 l 1
 220 1166 l 1
 141 1148 l 1
 141 836 l 1
 16 836 l 1
 16 781 l 1
 141 781 l 1
112 -253 m 1
 140 -263 186 -273 232 -273 c 0
 311 -273 348 -233 348 -194 c 0
 348 -149 305 -105 224 -105 c 2
 212 -105 l 1
 251 9 l 1
 201 9 l 1
 143 -141 l 1
 201 -146 244 -163 244 -189 c 0
 244 -214 221 -221 195 -221 c 0
 164 -221 125 -211 112 -207 c 1
 112 -253 l 1
EndSplineSet
EndChar

StartChar: thorn
Encoding: 186 254 321
Width: 1083
VWidth: 0
Flags: W
PickledData: "(dp1
S'com.typemytype.robofont.layerData'
p2
(dp3
s."
LayerCount: 2
Fore
SplineSet
24 1234 m 1
 24 1174 l 1
 173 1174 l 1
 173 -300 l 1
 8 -300 l 1
 8 -360 l 1
 249 -360 l 1
 252 125 l 1
 299 73 449 -14 614 -14 c 0
 933 -14 1050 240 1050 434 c 0
 1050 644 897 854 611 854 c 0
 461 854 327 784 252 695 c 1
 252 1234 l 1
 24 1234 l 1
971 426 m 0
 971 245 857 53 617 53 c 0
 495 53 397 82 252 193 c 1
 252 619 l 1
 386 756 488 787 615 787 c 0
 835 787 971 624 971 426 c 0
EndSplineSet
EndChar

StartChar: three
Encoding: 19 51 322
Width: 1044
VWidth: 0
Flags: W
PickledData: "(dp1
S'com.typemytype.robofont.layerData'
p2
(dp3
s."
LayerCount: 2
Fore
SplineSet
194 1026 m 1
 256 1146 376 1183 504 1183 c 0
 656 1183 818 1099 818 929 c 0
 818 710 602 697 432 697 c 1
 432 617 l 1
 630 617 841 581 841 348 c 0
 841 170 684 50 514 50 c 0
 362 50 231 119 162 257 c 1
 98 216 l 1
 174 60 338 -19 506 -19 c 0
 717 -19 925 125 925 350 c 0
 925 500 838 623 661 649 c 1
 831 683 903 793 903 930 c 0
 903 1142 697 1256 506 1256 c 0
 351 1256 199 1201 123 1057 c 1
 194 1026 l 1
EndSplineSet
EndChar

StartChar: threequarters
Encoding: 122 190 323
Width: 1315
VWidth: 0
Flags: W
PickledData: "(dp1
S'com.typemytype.robofont.layerData'
p2
(dp3
s."
LayerCount: 2
Fore
SplineSet
503 829 m 1
 589 865 632 923 632 1002 c 0
 632 1162 491 1247 349 1247 c 0
 217 1247 125 1197 74 1097 c 1
 140 1067 l 1
 178 1140 247 1177 347 1177 c 0
 455 1177 554 1122 554 1001 c 0
 554 907 491 863 283 863 c 2
 249 863 l 1
 249 789 l 1
 285 789 l 2
 374 789 434 783 468 768 c 0
 536 737 571 702 571 603 c 0
 571 505 470 418 355 418 c 0
 244 418 164 467 117 565 c 1
 57 526 l 1
 108 412 227 352 337 352 c 0
 513 352 647 471 647 595 c 0
 647 716 599 794 503 829 c 1
927 316 m 1
 936 260 l 1
 1284 260 l 1
 1284 61 l 1
 1172 61 l 1
 1172 0 l 1
 1469 0 l 1
 1469 61 l 1
 1357 61 l 1
 1357 260 l 1
 1535 260 l 1
 1535 323 l 1
 1357 323 l 1
 1357 866 l 1
 1265 866 l 1
 927 316 l 1
1284 323 m 1
 1017 323 l 1
 1106 476 1193 616 1284 768 c 1
 1284 323 l 1
1015 1255 m 1
 643 -23 l 1
 718 -23 l 1
 1086 1255 l 1
 1015 1255 l 1
EndSplineSet
EndChar

StartChar: tilde
Encoding: 344 732 324
Width: 474
VWidth: 0
Flags: W
PickledData: "(dp1
S'com.typemytype.robofont.layerData'
p2
(dp3
s."
LayerCount: 2
Fore
SplineSet
42 1028 m 1
 50 1055 65 1069 101 1069 c 0
 171 1069 245 1022 344 1022 c 0
 416 1022 459 1072 468 1153 c 1
 431 1153 l 1
 422 1126 394 1110 357 1110 c 0
 291 1110 214 1157 128 1157 c 0
 65 1157 14 1118 4 1028 c 1
 42 1028 l 1
EndSplineSet
EndChar

StartChar: trademark
Encoding: 371 8482 325
Width: 1697
VWidth: 0
Flags: W
PickledData: "(dp1
S'com.typemytype.robofont.layerData'
p2
(dp3
s."
LayerCount: 2
Fore
SplineSet
130 1236 m 1
 130 1026 l 1
 186 1026 l 1
 186 1183 l 1
 374 1183 l 1
 374 660 l 1
 288 660 l 1
 288 612 l 1
 520 612 l 1
 520 660 l 1
 433 660 l 1
 433 1183 l 1
 625 1183 l 1
 625 1026 l 1
 682 1026 l 1
 682 1236 l 1
 130 1236 l 1
1178 651 m 1
 1190 651 l 1
 1410 1114 l 1
 1410 661 l 1
 1331 661 l 1
 1331 612 l 1
 1546 612 l 1
 1546 661 l 1
 1468 661 l 1
 1468 1187 l 1
 1546 1187 l 1
 1546 1236 l 1
 1405 1236 l 1
 1332 1080 1258 916 1184 760 c 1
 955 1236 l 1
 814 1236 l 1
 814 1187 l 1
 893 1187 l 1
 893 661 l 1
 814 661 l 1
 814 612 l 1
 1030 612 l 1
 1030 661 l 1
 950 661 l 1
 950 1115 l 1
 1178 651 l 1
EndSplineSet
EndChar

StartChar: two
Encoding: 18 50 326
Width: 960
VWidth: 0
Flags: W
PickledData: "(dp1
S'com.typemytype.robofont.layerData'
p2
(dp3
s."
LayerCount: 2
Fore
SplineSet
117 0 m 1
 888 0 l 1
 888 78 l 1
 227 78 l 1
 371 217 887 637 887 910 c 0
 887 1128 738 1255 523 1255 c 0
 302 1255 143 1121 143 893 c 0
 143 854 147 816 155 778 c 1
 240 778 l 1
 230 816 224 856 224 895 c 0
 224 1074 345 1183 521 1183 c 0
 695 1183 801 1085 801 910 c 0
 801 659 231 192 117 80 c 1
 117 0 l 1
EndSplineSet
EndChar

StartChar: u
Encoding: 85 117 327
Width: 1163
VWidth: 0
Flags: W
PickledData: "(dp1
S'com.typemytype.robofont.layerData'
p2
(dp3
s."
LayerCount: 2
Fore
SplineSet
906 58 m 1
 906 836 l 1
 670 836 l 1
 670 776 l 1
 827 776 l 1
 827 173 l 1
 725 110 632 53 502 53 c 0
 340 53 311 136 311 239 c 2
 311 836 l 1
 74 836 l 1
 74 776 l 1
 232 776 l 1
 232 223 l 2
 232 114 293 -14 495 -14 c 0
 620 -14 698 25 831 104 c 1
 839 0 l 1
 1062 0 l 1
 1062 58 l 1
 906 58 l 1
EndSplineSet
EndChar

StartChar: underscore
Encoding: 63 95 335
Width: 1061
VWidth: 0
Flags: W
PickledData: "(dp1
S'com.typemytype.robofont.layerData'
p2
(dp3
s."
LayerCount: 2
Fore
SplineSet
897 0 m 1
 165 0 l 1
 165 -62 l 1
 897 -62 l 1
 897 0 l 1
EndSplineSet
EndChar

StartChar: uni00B2
Encoding: 113 178 337
Width: 811
VWidth: 0
Flags: W
PickledData: "(dp1
S'com.typemytype.robofont.layerData'
p2
(dp3
s."
LayerCount: 2
Fore
SplineSet
639 0 m 1
 639 72 l 1
 241 72 l 1
 360 191 680 449 680 635 c 0
 680 791 574 881 420 881 c 0
 264 881 151 786 151 623 c 0
 151 593 153 564 159 535 c 1
 237 535 l 1
 230 565 224 598 224 624 c 0
 224 740 304 812 418 812 c 0
 534 812 602 749 602 635 c 0
 602 462 206 143 133 70 c 1
 133 0 l 1
 639 0 l 1
EndSplineSet
EndChar

StartChar: uni00B3
Encoding: 65571 179 338
Width: 811
VWidth: 0
Flags: W
PickledData: "(dp1
S'com.typemytype.robofont.layerData'
p2
(dp3
s."
LayerCount: 2
Fore
SplineSet
175 702 m 1
 219 786 300 812 382 812 c 0
 483 812 589 758 589 648 c 0
 589 508 458 498 347 498 c 2
 284 498 l 1
 284 424 l 1
 320 424 l 2
 451 424 606 415 606 248 c 0
 606 132 502 53 390 53 c 0
 289 53 200 101 152 200 c 1
 92 161 l 1
 148 46 265 -13 384 -13 c 0
 535 -13 682 90 682 250 c 0
 682 348 628 431 538 464 c 1
 614 496 667 560 667 648 c 0
 667 799 520 882 384 882 c 0
 274 882 165 841 109 732 c 1
 175 702 l 1
EndSplineSet
EndChar

StartChar: uni00B5
Encoding: 65572 181 339
Width: 1158
VWidth: 0
Flags: W
PickledData: "(dp1
S'com.typemytype.robofont.layerData'
p2
(dp3
s."
LayerCount: 2
Fore
SplineSet
349 -232 m 1
 349 40 l 1
 390 7 449 -14 532 -14 c 0
 657 -14 735 25 868 104 c 1
 876 0 l 1
 1116 0 l 1
 1116 58 l 1
 943 58 l 1
 943 836 l 1
 690 836 l 1
 690 776 l 1
 864 776 l 1
 864 173 l 1
 762 110 669 53 539 53 c 0
 393 53 355 119 349 208 c 1
 348 836 l 1
 94 836 l 1
 94 776 l 1
 269 776 l 1
 269 -232 l 1
 349 -232 l 1
EndSplineSet
EndChar

StartChar: uni00B9
Encoding: 65573 185 340
Width: 551
VWidth: 0
Flags: W
PickledData: "(dp1
S'com.typemytype.robofont.layerData'
p2
(dp3
s."
LayerCount: 2
Fore
SplineSet
322 61 m 1
 322 869 l 1
 127 832 l 1
 144 767 l 1
 248 787 l 1
 248 61 l 1
 127 61 l 1
 127 0 l 1
 439 0 l 1
 439 61 l 1
 322 61 l 1
EndSplineSet
EndChar

StartChar: uni01F1
Encoding: 386 497 346
Width: 2503
VWidth: 0
Flags: W
PickledData: "(dp1
S'com.typemytype.robofont.layerData'
p2
(dp3
s."
LayerCount: 2
Fore
SplineSet
2399 1153 m 1
 2399 1234 l 1
 1452 1234 l 1
 1452 870 l 1
 1529 870 l 1
 1529 1164 l 1
 2310 1164 l 1
 1433 96 l 1
 1433 0 l 1
 2435 0 l 1
 2435 376 l 1
 2358 376 l 1
 2358 70 l 1
 1516 70 l 1
 2399 1153 l 1
57 1234 m 1
 57 1171 l 1
 223 1171 l 1
 223 62 l 1
 57 62 l 1
 57 0 l 1
 750 0 l 2
 1113 0 1295 306 1295 614 c 0
 1295 923 1112 1234 750 1234 c 2
 57 1234 l 1
749 1171 m 2
 1058 1171 1211 893 1211 616 c 0
 1211 338 1059 62 749 62 c 2
 305 62 l 1
 305 1171 l 1
 749 1171 l 2
EndSplineSet
EndChar

StartChar: uni0237
Encoding: 337 567 382
Width: 333
VWidth: 0
Flags: W
PickledData: "(dp1
S'com.typemytype.robofont.layerData'
p2
(dp3
s."
LayerCount: 2
Fore
SplineSet
215 -34 m 2
 215 -149 215 -211 78 -211 c 2
 0 -211 l 1
 0 -271 l 1
 80 -271 l 2
 294 -271 294 -143 294 -22 c 2
 294 836 l 1
 78 836 l 1
 78 779 l 1
 215 779 l 1
 215 -34 l 2
EndSplineSet
EndChar

StartChar: uni0307
Encoding: 399 775 383
Width: 397
VWidth: 0
Flags: W
PickledData: "(dp1
S'com.typemytype.robofont.layerData'
p2
(dp3
s."
LayerCount: 2
Fore
SplineSet
141 1184 m 1
 141 1064 l 1
 257 1064 l 1
 257 1184 l 1
 141 1184 l 1
EndSplineSet
EndChar

StartChar: uni030F
Encoding: 346 783 384
Width: 627
VWidth: 0
Flags: W
PickledData: "(dp1
S'com.typemytype.robofont.layerData'
p2
(dp3
s."
LayerCount: 2
Fore
SplineSet
289 985 m 1
 230 1234 l 1
 104 1234 l 1
 258 985 l 1
 289 985 l 1
499 985 m 1
 440 1234 l 1
 314 1234 l 1
 468 985 l 1
 499 985 l 1
EndSplineSet
EndChar

StartChar: uni0311
Encoding: 347 785 385
Width: 854
VWidth: 0
Flags: W
PickledData: "(dp1
S'com.typemytype.robofont.layerData'
p2
(dp3
s."
LayerCount: 2
Fore
SplineSet
218 1080 m 1
 234 1171 311 1218 431 1218 c 0
 546 1218 626 1171 642 1080 c 1
 721 1080 l 1
 709 1194 594 1272 431 1272 c 0
 263 1272 144 1195 131 1080 c 1
 218 1080 l 1
EndSplineSet
EndChar

StartChar: uni0326
Encoding: 348 806 386
Width: 457
VWidth: 0
Flags: W
PickledData: "(dp1
S'com.typemytype.robofont.layerData'
p2
(dp3
s."
LayerCount: 2
Fore
SplineSet
145 -78 m 1
 220 -78 l 1
 220 -160 197 -194 154 -205 c 1
 154 -277 l 1
 302 -271 298 -172 309 -37 c 0
 314 31 319 -43 319 108 c 1
 145 108 l 1
 145 -78 l 1
EndSplineSet
EndChar

StartChar: uni2074
Encoding: 65574 8308 387
Width: 770
VWidth: 0
Flags: W
PickledData: "(dp1
S'com.typemytype.robofont.layerData'
p2
(dp3
s."
LayerCount: 2
Fore
SplineSet
83 260 m 1
 431 260 l 1
 431 61 l 1
 319 61 l 1
 319 0 l 1
 616 0 l 1
 616 61 l 1
 504 61 l 1
 504 260 l 1
 682 260 l 1
 682 323 l 1
 504 323 l 1
 504 866 l 1
 412 866 l 1
 74 316 l 1
 83 260 l 1
164 323 m 1
 253 472 342 620 431 768 c 1
 431 323 l 1
 164 323 l 1
EndSplineSet
EndChar

StartChar: uni2206
Encoding: 65575 8710 388
Width: 759
VWidth: 0
Flags: W
PickledData: "(dp1
S'com.typemytype.robofont.layerData'
p2
(dp3
s."
LayerCount: 2
Fore
SplineSet
379 935 m 1
 648 61 l 1
 109 61 l 1
 379 935 l 1
393 1018 m 1
 365 1018 l 1
 62 67 l 1
 62 0 l 1
 698 0 l 1
 698 66 l 1
 393 1018 l 1
EndSplineSet
EndChar

StartChar: v
Encoding: 86 118 392
Width: 1119
VWidth: 0
Flags: W
PickledData: "(dp1
S'com.typemytype.robofont.layerData'
p2
(dp3
s."
LayerCount: 2
Fore
SplineSet
435 776 m 1
 435 836 l 1
 37 836 l 1
 37 776 l 1
 186 776 l 1
 528 0 l 1
 618 0 l 1
 938 776 l 1
 1083 776 l 1
 1083 836 l 1
 691 836 l 1
 691 776 l 1
 848 776 l 1
 570 71 l 1
 268 776 l 1
 435 776 l 1
EndSplineSet
EndChar

StartChar: w
Encoding: 87 119 393
Width: 1675
VWidth: 0
Flags: W
PickledData: "(dp1
S'com.typemytype.robofont.layerData'
p2
(dp3
s."
LayerCount: 2
Fore
SplineSet
435 776 m 1
 435 836 l 1
 64 836 l 1
 64 776 l 1
 204 776 l 1
 484 0 l 1
 574 0 l 1
 839 710 l 1
 1102 0 l 1
 1192 0 l 1
 1471 776 l 1
 1611 776 l 1
 1611 836 l 1
 1239 836 l 1
 1239 776 l 1
 1381 776 l 1
 1143 65 l 1
 880 776 l 1
 1026 776 l 1
 1026 836 l 1
 646 836 l 1
 646 776 l 1
 789 776 l 1
 528 65 l 1
 282 776 l 1
 435 776 l 1
EndSplineSet
EndChar

StartChar: x
Encoding: 88 120 394
Width: 1212
VWidth: 0
Flags: W
PickledData: "(dp1
S'com.typemytype.robofont.layerData'
p2
(dp3
s."
LayerCount: 2
Fore
SplineSet
510 776 m 1
 510 836 l 1
 126 836 l 1
 126 776 l 1
 275 776 l 1
 563 433 l 1
 252 60 l 1
 102 60 l 1
 102 0 l 1
 485 0 l 1
 485 60 l 1
 347 60 l 1
 610 378 l 1
 879 60 l 1
 715 60 l 1
 715 0 l 1
 1110 0 l 1
 1110 60 l 1
 959 60 l 1
 649 426 l 1
 940 776 l 1
 1099 776 l 1
 1099 836 l 1
 702 836 l 1
 702 776 l 1
 850 776 l 1
 603 481 l 1
 353 776 l 1
 510 776 l 1
EndSplineSet
EndChar

StartChar: y
Encoding: 89 121 395
Width: 1134
VWidth: 0
Flags: W
PickledData: "(dp1
S'com.typemytype.robofont.layerData'
p2
(dp3
s."
LayerCount: 2
Fore
SplineSet
228 -274 m 1
 249 -274 l 2
 418 -274 539 -271 599 -127 c 2
 973 776 l 1
 1108 776 l 1
 1108 836 l 1
 715 836 l 1
 715 776 l 1
 882 776 l 1
 606 89 l 1
 307 776 l 1
 455 776 l 1
 455 836 l 1
 56 836 l 1
 56 776 l 1
 220 776 l 1
 540 58 l 1
 596 58 l 1
 526 -104 l 2
 484 -200 397 -206 281 -206 c 2
 228 -206 l 1
 228 -274 l 1
EndSplineSet
EndChar

StartChar: yen
Encoding: 100 165 398
Width: 1378
VWidth: 0
Flags: W
PickledData: "(dp1
S'com.typemytype.robofont.layerData'
p2
(dp3
s."
LayerCount: 2
Fore
SplineSet
1068 288 m 1
 732 288 l 1
 732 433 l 1
 1068 433 l 1
 1068 496 l 1
 768 496 l 1
 1171 1171 l 1
 1327 1171 l 1
 1327 1234 l 1
 924 1234 l 1
 924 1171 l 1
 1083 1171 l 1
 693 508 l 1
 296 1171 l 1
 453 1171 l 1
 453 1234 l 1
 50 1234 l 1
 50 1171 l 1
 208 1171 l 1
 614 496 l 1
 319 496 l 1
 319 433 l 1
 650 433 l 1
 650 288 l 1
 319 288 l 1
 319 226 l 1
 650 226 l 1
 650 62 l 1
 489 62 l 1
 489 0 l 1
 892 0 l 1
 892 62 l 1
 732 62 l 1
 732 226 l 1
 1068 226 l 1
 1068 288 l 1
EndSplineSet
EndChar

StartChar: z
Encoding: 90 122 399
Width: 952
VWidth: 0
Flags: W
PickledData: "(dp1
S'com.typemytype.robofont.layerData'
p2
(dp3
s."
LayerCount: 2
Fore
SplineSet
815 0 m 1
 815 277 l 1
 746 277 l 1
 746 58 l 1
 228 58 l 1
 797 764 l 1
 797 836 l 1
 159 836 l 1
 159 583 l 1
 228 583 l 1
 228 776 l 1
 714 776 l 1
 138 67 l 1
 138 0 l 1
 815 0 l 1
EndSplineSet
EndChar

StartChar: zero
Encoding: 16 48 403
Width: 1140
VWidth: 0
Flags: W
PickledData: "(dp1
S'com.typemytype.robofont.layerData'
p2
(dp3
s."
LayerCount: 2
Fore
SplineSet
570 -23 m 0
 888 -23 1018 251 1018 616 c 0
 1018 974 888 1255 570 1255 c 0
 252 1255 122 974 122 616 c 0
 122 251 252 -23 570 -23 c 0
570 1182 m 0
 830 1182 934 968 934 616 c 0
 934 233 822 48 570 48 c 0
 318 48 206 233 206 616 c 0
 206 968 310 1182 570 1182 c 0
EndSplineSet
EndChar

